<?xml version="1.0" encoding="UTF-8" standalone="no"?>
<!-- Created with Inkscape (http://www.inkscape.org/) -->

<svg
   width="24"
   height="24"
   viewBox="0 0 6.3499999 6.35"
   version="1.1"
   id="svg1"
   xmlns:inkscape="http://www.inkscape.org/namespaces/inkscape"
   xmlns:sodipodi="http://sodipodi.sourceforge.net/DTD/sodipodi-0.dtd"
   xmlns="http://www.w3.org/2000/svg"
   xmlns:svg="http://www.w3.org/2000/svg">
  <sodipodi:namedview
     id="namedview1"
     pagecolor="#ffffff"
     bordercolor="#000000"
     borderopacity="0.25"
     inkscape:showpageshadow="2"
     inkscape:pageopacity="0.0"
     inkscape:pagecheckerboard="0"
     inkscape:deskcolor="#d1d1d1"
     inkscape:document-units="mm" />
  <defs
     id="defs1" />
  <g
     inkscape:label="Calque 1"
     inkscape:groupmode="layer"
     id="layer1">
    <path
       style="display:inline;fill:#ffa200;fill-opacity:1;stroke-width:0.264583"
       d="m 4.0970886,5.3551537 c -0.00731,-0.00177 -0.013285,-0.00609 -0.013285,-0.00956 0,-0.00348 -0.00665,-0.00459 -0.01479,-0.00246 C 4.0174969,5.356601 3.7734481,5.1473526 3.7232956,5.0467096 L 3.7042085,5.0084056 3.7040709,4.3854613 C 3.7039011,3.6129735 3.6904528,3.1368663 3.6670171,3.0735101 3.6628129,3.0621449 3.637379,3.0999858 3.5526393,3.2436839 3.3615355,3.5677486 2.9443702,4.2554737 2.9350383,4.2618401 2.9215022,4.271074 2.8554794,4.2608876 2.8144225,4.2432213 2.7710514,4.2245629 2.7527449,4.1978308 2.7399854,4.1345213 2.7349345,4.1094679 2.7006074,3.9967281 2.6636997,3.8839881 2.6267905,3.7712507 2.5638052,3.5734482 2.5237307,3.4444297 2.4836562,3.3154112 2.4474828,3.2035253 2.4433455,3.1957945 2.4197872,3.1517756 2.3660459,3.1980137 2.2126137,3.3943121 1.997018,3.6701415 1.8968327,3.7745363 1.7805102,3.8445707 1.718672,3.8818018 1.6474993,3.9006558 1.6167979,3.8879388 1.5627501,3.8655514 1.5285689,3.765032 1.4616243,3.4316065 1.4238447,3.2434391 1.4170513,3.2196981 1.4009886,3.2196981 c -0.00596,0 -0.049603,0.030872 -0.096985,0.068605 -0.1476595,0.117589 -0.271055,0.1667447 -0.41857909,0.1667447 -0.12360153,0 -0.23132558,-0.037276 -0.37305594,-0.1290896 l -0.0726848,-0.047086 v -0.044103 c 0,-0.084425 0.0294135,-0.1958862 0.0623237,-0.2361736 0.005537,-0.00678 0.0219649,-0.019577 0.0365055,-0.028441 0.044207,-0.026949 0.085618,-0.021886 0.20481011,0.025038 0.12308973,0.048459 0.17868691,0.060864 0.24993915,0.055766 0.0813393,-0.00582 0.14298227,-0.038316 0.20912067,-0.110243 0.1795166,-0.1952268 0.2503187,-0.2411523 0.3489717,-0.2263584 0.047623,0.00714 0.119553,0.055467 0.1368666,0.091953 0.00758,0.015968 0.020466,0.073663 0.02864,0.1282098 0.015326,0.1022624 0.024926,0.1335664 0.042744,0.1393813 0.021226,0.00693 0.1849285,-0.1735471 0.4560825,-0.502811 0.068546,-0.083236 0.1364664,-0.1618118 0.1509346,-0.174614 0.1023995,-0.090607 0.2035321,-0.1352992 0.2673076,-0.1181263 0.067347,0.018134 0.095861,0.064782 0.1206317,0.1973406 0.021196,0.1134323 0.055157,0.2336897 0.095406,0.3378401 0.036041,0.093262 0.1077592,0.2401794 0.1426808,0.2922888 0.026313,0.039262 0.066305,0.083511 0.07548,0.083511 0.01806,0 0.1086236,-0.1606042 0.4060412,-0.720061 0.3414575,-0.6422981 0.4069871,-0.7554078 0.4569015,-0.7886523 0.034533,-0.023 0.069861,-0.03285 0.1357905,-0.037859 0.1131518,-0.0086 0.205689,0.029791 0.2510769,0.1041571 l 0.025456,0.041707 -0.00474,0.1708181 c -0.00262,0.09395 -0.008,0.2698925 -0.011975,0.3909836 -0.00398,0.121091 -0.012364,0.4268554 -0.01864,0.6794763 -0.011128,0.4480071 -0.014973,0.5517107 -0.024209,0.6529045 -0.00249,0.027141 -0.00185,0.046824 0.0014,0.04374 0.020188,-0.019156 0.562085,-1.744873 0.7366442,-2.3459034 0.031847,-0.1096549 0.067943,-0.2321931 0.080213,-0.2723071 0.023958,-0.078326 0.047083,-0.11056286 0.07422,-0.1034663 0.00835,0.00218 0.016486,6.3e-5 0.018076,-0.00471 0.00381,-0.0114462 0.2547435,-0.0107215 0.2739816,7.914e-4 0.00365,0.00218 0.027608,0.0047 0.053245,0.00559 0.1119481,0.00389 0.1830779,0.077673 0.2135605,0.221541 0.015436,0.072853 0.013938,0.2260969 -0.00366,0.3745456 -0.046265,0.3902244 -0.1386782,1.6710575 -0.1281764,1.7765079 0.00249,0.02493 0.00537,0.021023 0.046702,-0.063239 0.049138,-0.1001723 0.085162,-0.1444672 0.1486863,-0.1828262 0.082121,-0.049588 0.2513923,-0.095571 0.3518173,-0.095571 0.049382,0 0.1333442,0.019645 0.1642237,0.038424 0.019428,0.011815 0.024572,0.019726 0.023297,0.035819 -8.996e-4,0.011361 0.0014,0.027488 0.00515,0.035839 0.00373,0.00835 0.00678,0.091474 0.00678,0.1847178 0,0.1922026 0.00228,0.1851692 -0.062682,0.1938372 -0.060991,0.00814 -0.3846398,0.082423 -0.3951496,0.090695 -0.00545,0.00429 -0.047207,0.082614 -0.092794,0.1740548 C 5.7070048,3.9761332 5.667592,4.0379904 5.6176323,4.076096 5.5678912,4.1140346 5.5278364,4.1094774 5.4090655,4.0523655 5.2466116,3.9742488 5.0173425,3.8337503 4.9692283,3.7828292 l -0.021807,-0.02308 0.019944,-0.2377606 C 4.9894239,3.2590232 4.9911807,3.2172195 4.9794306,3.2348809 4.9752634,3.2411441 4.9290965,3.3777987 4.876836,3.5385574 4.7098652,4.0521768 4.3877876,5.0196967 4.3529036,5.1124493 4.2884339,5.2838659 4.2470531,5.3543509 4.2175359,5.3430241 c -0.00621,-0.00238 -0.01261,-3.439e-4 -0.014232,0.00451 -0.00291,0.00874 -0.079188,0.014211 -0.1062186,0.00762 z M 4.247029,5.3150667 c 0.00756,-0.00835 0.012033,-0.015184 0.00995,-0.015184 -0.00209,0 -0.00998,0.00683 -0.017537,0.015184 -0.00756,0.00835 -0.012033,0.015184 -0.00995,0.015184 0.00209,0 0.00998,-0.00683 0.017537,-0.015184 z M 3.9623323,5.2742404 c 0,-0.00159 -0.00598,-0.00755 -0.013285,-0.013285 -0.012041,-0.00944 -0.012308,-0.00918 -0.00287,0.00287 0.00992,0.012647 0.016153,0.016669 0.016153,0.010419 z m -0.030368,-0.022529 c 0,-0.00143 -0.00769,-0.00913 -0.017082,-0.017081 l -0.017081,-0.014462 0.014462,0.017081 c 0.013592,0.016052 0.019701,0.020537 0.019701,0.014462 z m -0.053143,-0.04509 c 0,-0.00119 -0.019643,-0.020831 -0.043653,-0.043654 l -0.043654,-0.041496 0.041496,0.043654 c 0.038551,0.040555 0.045811,0.047131 0.045811,0.041496 z M 3.7801262,5.0996257 c 0,-0.00159 -0.00598,-0.00756 -0.013285,-0.013287 -0.012041,-0.00944 -0.012311,-0.00918 -0.00287,0.00287 0.00992,0.012647 0.016153,0.016669 0.016153,0.010419 z M 2.8898163,4.2476108 c -0.00251,-0.00251 -0.00907,-0.00279 -0.014552,-6.086e-4 -0.00606,0.00243 -0.00426,0.00422 0.00459,0.00459 0.008,3.175e-4 0.012488,-0.00146 0.00996,-0.00399 z m 0.048576,-0.0087 c 0.00944,-0.012041 0.00918,-0.012308 -0.00287,-0.00287 -0.012647,0.00992 -0.016669,0.016153 -0.010419,0.016153 0.00159,0 0.00756,-0.00598 0.013285,-0.013285 z M 2.7528121,4.1141192 c -0.00243,-0.00606 -0.00422,-0.00426 -0.00459,0.00459 -3.175e-4,0.008 0.00146,0.012488 0.00399,0.00996 0.00251,-0.00251 0.00279,-0.00907 6.085e-4,-0.014552 z m 2.8057202,-0.026382 c -0.00522,-0.00212 -0.013761,-0.00212 -0.018981,0 -0.00522,0.00212 -9.525e-4,0.00383 0.00949,0.00383 0.010438,0 0.014711,-0.00172 0.00949,-0.00383 z m 0.077817,-0.040524 c 0.00756,-0.00835 0.012033,-0.015184 0.00995,-0.015184 -0.00209,0 -0.00998,0.00683 -0.017537,0.015184 -0.00756,0.00835 -0.012033,0.015185 -0.00995,0.015185 0.00209,0 0.00998,-0.00683 0.017537,-0.015185 z M 3.7174361,3.6884962 c -0.00143,-0.030273 -0.00262,-0.0055 -0.00262,0.055041 0,0.060546 0.00119,0.085314 0.00262,0.055042 0.00143,-0.030273 0.00143,-0.07981 0,-0.110083 z M 1.8375646,3.790987 c 0.00944,-0.012041 0.00917,-0.012311 -0.00287,-0.00287 -0.00731,0.00573 -0.013286,0.011711 -0.013286,0.013285 0,0.00625 0.00623,0.00222 0.016152,-0.010419 z m 3.1648599,0.00322 c 0,-0.00135 -0.0094,-0.010755 -0.020878,-0.020878 l -0.020878,-0.018404 0.018404,0.020878 c 0.017203,0.019513 0.02335,0.02436 0.02335,0.018404 z M 1.8821477,3.754928 c 0.00981,-0.010438 0.016122,-0.018979 0.014034,-0.018979 -0.00209,0 -0.01182,0.00854 -0.021626,0.018979 -0.00981,0.010438 -0.016122,0.018981 -0.014034,0.018981 0.00209,0 0.01182,-0.00854 0.021626,-0.018981 z m 2.4103791,0.011475 c 0.00266,-0.0043 -3.969e-4,-0.00557 -0.00714,-0.00298 -0.013152,0.00505 -0.015557,0.010488 -0.00464,0.010488 0.00393,0 0.00923,-0.00338 0.011782,-0.00751 z M 4.2715398,3.677111 c -0.00164,-0.015658 -0.00298,-0.00285 -0.00298,0.02847 0,0.031317 0.00135,0.044128 0.00298,0.02847 0.00164,-0.015658 0.00164,-0.041281 0,-0.056939 z m 0.6981589,-0.00759 c -0.0019,-0.00731 -0.00347,-0.00132 -0.00347,0.013285 0,0.014616 0.00156,0.020592 0.00347,0.013285 0.0019,-0.00731 0.0019,-0.019264 0,-0.026572 z M 2.0003007,3.635357 2.0225987,3.610682 1.9979247,3.632981 c -0.022999,0.020786 -0.028163,0.027049 -0.022298,0.027049 0.00131,0 0.01241,-0.011102 0.024674,-0.024672 z M 5.884055,3.6087838 c 0.00944,-0.012041 0.00918,-0.012311 -0.00287,-0.00287 -0.00731,0.00573 -0.013285,0.01171 -0.013285,0.013285 0,0.00625 0.00623,0.00222 0.016153,-0.010419 z M 4.9772901,3.578416 c -0.0019,-0.00731 -0.00347,-0.00132 -0.00347,0.013285 0,0.014616 0.00156,0.020593 0.00347,0.013285 0.00191,-0.00731 0.00191,-0.019264 0,-0.026572 z m -3.469552,-0.00332 c -0.00242,-0.00606 -0.00422,-0.00426 -0.00459,0.00459 -3.308e-4,0.008 0.00147,0.012488 0.00399,0.00996 0.00252,-0.00251 0.00279,-0.00907 5.98e-4,-0.014552 z m 0.5452276,0.00143 c 0.00756,-0.00835 0.012033,-0.015184 0.00995,-0.015184 -0.00209,0 -0.00998,0.00683 -0.017537,0.015184 -0.00756,0.00835 -0.012033,0.015184 -0.00995,0.015184 0.00209,0 0.00998,-0.00683 0.017537,-0.015184 z M 4.278834,3.555648 c -0.0019,-0.00731 -0.00347,-0.00132 -0.00347,0.013285 0,0.014616 0.00156,0.020592 0.00347,0.013285 0.0019,-0.00731 0.0019,-0.019264 0,-0.026572 z m 1.6629317,0.031475 c -0.00251,-0.00251 -0.00907,-0.00279 -0.014552,-6.086e-4 -0.00606,0.00243 -0.00426,0.00422 0.00459,0.00459 0.008,3.175e-4 0.012488,-0.00146 0.00996,-0.00399 z M 6.1087879,3.549164 c -0.00251,-0.00251 -0.00907,-0.00279 -0.014552,-6.086e-4 -0.00606,0.00243 -0.00426,0.00422 0.00459,0.00459 0.008,3.175e-4 0.012488,-0.00146 0.00996,-0.00399 z M 2.0880978,3.5328646 c 0.00944,-0.012041 0.00918,-0.012308 -0.00287,-0.00287 -0.012646,0.00992 -0.016668,0.016153 -0.01042,0.016153 0.00158,0 0.00756,-0.00598 0.013286,-0.013285 z m 2.896812,-0.045407 c -0.00193,-0.00739 -0.00363,-0.00318 -0.00378,0.00935 -1.547e-4,0.012525 0.00143,0.018571 0.0035,0.01343 0.00209,-0.00514 0.0022,-0.015388 2.91e-4,-0.022776 z m 1.3060839,0.023738 c -0.00251,-0.00251 -0.00907,-0.00279 -0.014552,-6.085e-4 -0.00606,0.00243 -0.00426,0.00422 0.00459,0.00459 0.008,3.175e-4 0.012488,-0.00146 0.00996,-0.00399 z m -4.1421606,-0.05425 c 0.00944,-0.012041 0.00917,-0.01231 -0.00287,-0.00287 -0.00731,0.00573 -0.013286,0.011709 -0.013286,0.013286 0,0.00625 0.00623,0.00223 0.016152,-0.010419 z m 1.5609145,-0.060566 c -0.00164,-0.015751 -0.00302,-0.00472 -0.00305,0.024504 -3.01e-5,0.029229 0.00132,0.042116 0.00299,0.028639 0.00167,-0.013477 0.00169,-0.037392 6e-5,-0.053143 z m -2.80112693,0.045651 c -0.011408,-0.00173 -0.0319062,-0.00177 -0.0455515,-7.74e-5 -0.0136454,0.00169 -0.004312,0.00311 0.0207417,0.00315 0.0250534,4.56e-5 0.0362177,-0.00134 0.0248097,-0.00307 z M 5.5971094,3.4415784 c -0.00488,-0.0031 -0.010311,-0.017572 -0.01207,-0.032149 -0.00305,-0.025261 -0.00326,-0.024991 -0.00441,0.00576 -9.789e-4,0.026169 0.0013,0.032244 0.01207,0.03215 0.00872,-7.6e-5 0.010234,-0.00206 0.00441,-0.00576 z m -4.61286369,-0.0063 c -0.002524,-0.00252 -0.009071,-0.00279 -0.0145513,-5.979e-4 -0.006056,0.00242 -0.004257,0.00422 0.004587,0.00459 0.008003,3.307e-4 0.012487,-0.00147 0.009964,-0.00399 z m 0.49312469,-0.01202 c -0.00242,-0.00606 -0.00422,-0.00426 -0.00459,0.00459 -3.307e-4,0.008 0.00147,0.012487 0.00399,0.00996 0.00252,-0.00252 0.00279,-0.00907 5.98e-4,-0.014551 z m 2.8094025,-0.095373 c -0.00156,-0.019834 -0.00284,-0.00361 -0.00284,0.036061 0,0.039668 0.00127,0.055896 0.00284,0.036062 0.00156,-0.019834 0.00156,-0.052289 0,-0.072123 z m 0.7057011,0.068327 c -0.0019,-0.00731 -0.00347,-0.00133 -0.00347,0.013286 0,0.014614 0.00156,0.020593 0.00347,0.013286 0.0019,-0.00731 0.0019,-0.019264 0,-0.026572 z M 1.4697785,3.3852967 c -0.00242,-0.00606 -0.00422,-0.00426 -0.00459,0.00459 -3.308e-4,0.008 0.00147,0.012487 0.00399,0.00996 0.00252,-0.00252 0.00279,-0.00907 5.98e-4,-0.014551 z m 0.732198,0.00332 c 0.00944,-0.012041 0.00917,-0.01231 -0.00287,-0.00287 -0.012646,0.00992 -0.016668,0.016152 -0.01042,0.016152 0.00158,0 0.00756,-0.00598 0.013286,-0.013286 z m 2.7981173,-0.075775 c -0.00193,-0.00739 -0.00363,-0.00318 -0.00378,0.00935 -1.548e-4,0.012527 0.00143,0.01857 0.0035,0.01343 0.00209,-0.00514 0.0022,-0.015389 2.91e-4,-0.022776 z M 1.2529873,3.312699 c 0.00944,-0.012041 0.00917,-0.01231 -0.00287,-0.00287 -0.00731,0.00573 -0.013286,0.011709 -0.013286,0.013286 0,0.00625 0.00623,0.00223 0.016152,-0.010419 z m 0.2016074,-0.00332 c -0.00242,-0.00606 -0.00422,-0.00426 -0.00459,0.00459 -3.307e-4,0.008 0.00147,0.012487 0.00399,0.00996 0.00252,-0.00252 0.00279,-0.00907 5.979e-4,-0.014551 z M 1.2833549,3.2899233 c 0.00944,-0.012041 0.00917,-0.01231 -0.00287,-0.00287 -0.00731,0.00573 -0.013286,0.011709 -0.013286,0.013286 0,0.00625 0.00623,0.00223 0.016152,-0.010419 z m 4.3090049,-0.034164 c -0.0018,-0.0094 -0.00329,-0.00171 -0.00329,0.017082 0,0.01879 0.00148,0.026477 0.00329,0.017082 0.0018,-0.0094 0.0018,-0.024769 0,-0.034164 z m -5.11471624,0.029399 c 0,-0.00158 -0.005979,-0.00756 -0.0132858,-0.013286 -0.0120412,-0.00944 -0.0123097,-0.00917 -0.002866,0.00287 0.009918,0.012646 0.0161523,0.016668 0.0161523,0.01042 z m 1.81543594,-0.01042 c 0.00944,-0.012041 0.00917,-0.01231 -0.00287,-0.00287 -0.012646,0.00992 -0.016668,0.016152 -0.01042,0.016152 0.00158,0 0.00756,-0.00598 0.013286,-0.013286 z m 1.4089052,-0.034075 c -0.00183,-0.00944 -0.00337,-0.00351 -0.00346,0.013197 -8.44e-5,0.016702 0.0014,0.024429 0.0033,0.01717 0.0019,-0.00726 0.00196,-0.020924 1.532e-4,-0.030368 z m -2.3730783,0.011299 c 0.00944,-0.012041 0.00917,-0.01231 -0.00287,-0.00287 -0.00731,0.00573 -0.013286,0.011709 -0.013286,0.013286 0,0.00625 0.00623,0.00223 0.016152,-0.010419 z M 0.45246203,3.2410503 c -0.002424,-0.00606 -0.004222,-0.00426 -0.004587,0.00459 -3.3073e-4,0.008 0.001466,0.012487 0.003987,0.00996 0.002521,-0.00252 0.002792,-0.00907 6.0061e-4,-0.014551 z M 5.0076579,3.2140041 c -0.0019,-0.00731 -0.00347,-0.00133 -0.00347,0.013286 0,0.014614 0.00156,0.020593 0.00347,0.013286 0.0019,-0.00731 0.0019,-0.019265 0,-0.026572 z m -2.6624034,0.0019 c 0.014165,-0.014614 0.024046,-0.026572 0.021958,-0.026572 -0.00209,0 -0.015386,0.011957 -0.02955,0.026572 -0.014165,0.014614 -0.024046,0.026572 -0.021958,0.026572 0.00209,0 0.015385,-0.011957 0.02955,-0.026572 z m -0.9783886,0.00569 c 0.00944,-0.012041 0.00917,-0.01231 -0.00287,-0.00287 -0.00731,0.00573 -0.013286,0.011709 -0.013286,0.013286 0,0.00625 0.00623,0.00223 0.016152,-0.010419 z m 1.7261922,-0.032265 c 0.00756,-0.00835 0.012033,-0.015184 0.00995,-0.015184 -0.00209,0 -0.00998,0.00683 -0.017537,0.015184 -0.00756,0.00835 -0.012033,0.015184 -0.00995,0.015184 0.00209,0 0.00998,-0.00683 0.017537,-0.015184 z m 2.6571699,0 c 0.00756,-0.00835 0.012033,-0.015184 0.00995,-0.015184 -0.00209,0 -0.00998,0.00683 -0.017537,0.015184 -0.00756,0.00835 -0.012033,0.015184 -0.00995,0.015184 0.00209,0 0.00998,-0.00683 0.017537,-0.015184 z M 0.45989579,3.1646567 c -0.002106,-0.00522 -0.003829,-9.499e-4 -0.003829,0.00949 0,0.010439 0.001722,0.014709 0.003829,0.00949 0.002106,-0.00522 0.002106,-0.01376 0,-0.01898 z M 3.0209348,3.1636883 c 0,-0.00158 -0.00598,-0.00756 -0.013285,-0.013286 -0.012041,-0.00944 -0.012311,-0.00917 -0.00287,0.00287 0.00992,0.012646 0.016153,0.016668 0.016153,0.01042 z m 0.6731164,-0.021807 c -0.00212,-0.00522 -0.00383,-9.499e-4 -0.00383,0.00949 0,0.010439 0.00172,0.014709 0.00383,0.00949 0.00212,-0.00522 0.00212,-0.01376 0,-0.01898 z m 1.9059003,-0.022776 c -0.0018,-0.0094 -0.00329,-0.00171 -0.00329,0.017082 0,0.01879 0.00148,0.026477 0.00329,0.017082 0.0018,-0.0094 0.0018,-0.024769 0,-0.034164 z m -5.13230564,4.735e-4 c -0.002424,-0.00606 -0.004222,-0.00426 -0.004587,0.00459 -3.3073e-4,0.008 0.001466,0.012487 0.003987,0.00996 0.002521,-0.00252 0.002792,-0.00907 6.006e-4,-0.014551 z M 4.2943323,3.0277732 c -0.00159,-0.01762 -0.00288,-0.00129 -0.00285,0.036291 2.27e-5,0.03758 0.00132,0.051996 0.00289,0.032037 0.00156,-0.01996 0.00156,-0.050707 -4.58e-5,-0.068327 z M 1.764473,3.0851422 c -0.00835,-0.00205 -0.020308,-0.00764 -0.026572,-0.012405 -0.0099,-0.00754 -0.01003,-0.00694 -9.684e-4,0.00461 0.00573,0.00731 0.017688,0.012889 0.026572,0.012405 0.015342,-8.36e-4 0.01539,-0.00107 9.684e-4,-0.00461 z m 0.045551,-0.024874 c 0.00756,-0.00835 0.012033,-0.015184 0.00995,-0.015184 -0.00209,0 -0.00998,0.00683 -0.017537,0.015184 -0.00756,0.00835 -0.012033,0.015184 -0.00995,0.015184 0.00209,0 0.00998,-0.00683 0.017537,-0.015184 z m -0.88651411,0.00301 c -0.002521,-0.00252 -0.009071,-0.00279 -0.0145513,-5.98e-4 -0.006056,0.00242 -0.004257,0.00422 0.004587,0.00459 0.008003,3.308e-4 0.012487,-0.00147 0.009964,-0.00399 z m 0.10628681,0 c -0.00252,-0.00252 -0.00907,-0.00279 -0.014551,-5.98e-4 -0.00606,0.00242 -0.00426,0.00422 0.00459,0.00459 0.008,3.308e-4 0.012487,-0.00147 0.00996,-0.00399 z m 5.0182553,0 c -0.00251,-0.00252 -0.00907,-0.00279 -0.014552,-5.98e-4 -0.00606,0.00242 -0.00426,0.00422 0.00459,0.00459 0.008,3.308e-4 0.012486,-0.00147 0.00996,-0.00399 z m 0.049506,-0.00803 c -0.00522,-0.00211 -0.013761,-0.00211 -0.018981,0 -0.00522,0.00211 -9.525e-4,0.00383 0.00949,0.00383 0.010438,0 0.014708,-0.00172 0.00949,-0.00383 z m -4.1926346,-0.09146 c 0,-0.0057 -0.00682,3.255e-4 -0.038277,0.033846 l -0.033846,0.036062 0.036062,-0.033846 c 0.019834,-0.018615 0.036062,-0.034843 0.036062,-0.036062 z m 3.7026317,0.026343 c -0.00183,-0.00944 -0.00337,-0.0035 -0.00346,0.013197 -8.42e-5,0.016702 0.0014,0.024429 0.0033,0.01717 0.0019,-0.00726 0.00196,-0.020924 1.534e-4,-0.030368 z m -3.8948354,3.863e-4 c -0.00242,-0.00606 -0.00422,-0.00426 -0.00459,0.00459 -3.307e-4,0.008 0.00147,0.012487 0.00399,0.00996 0.00252,-0.00252 0.00279,-0.00907 5.979e-4,-0.014551 z M 1.2102633,2.961573 c 0.016309,-0.016702 0.027945,-0.030368 0.025857,-0.030368 -0.00209,0 -0.01714,0.013666 -0.033449,0.030368 -0.016309,0.016702 -0.027945,0.030368 -0.025857,0.030368 0.00209,0 0.01714,-0.013665 0.033449,-0.030368 z M 1.7049697,2.929307 c -0.00211,-0.00522 -0.00383,-9.498e-4 -0.00383,0.00949 0,0.010439 0.00172,0.014709 0.00383,0.00949 0.00211,-0.00522 0.00211,-0.01376 0,-0.01898 z M 1.9504749,2.912225 c 0.00981,-0.010439 0.016122,-0.01898 0.014035,-0.01898 -0.00209,0 -0.01182,0.00854 -0.021626,0.01898 -0.00981,0.010439 -0.016122,0.01898 -0.014035,0.01898 0.00209,0 0.01182,-0.00854 0.021626,-0.01898 z M 1.2605792,2.902735 c 0.00944,-0.012041 0.00917,-0.01231 -0.00287,-0.00287 -0.00731,0.00573 -0.013286,0.011709 -0.013286,0.013286 0,0.00625 0.00623,0.00223 0.016152,-0.010419 z M 5.6151471,2.861068 c -0.00183,-0.00944 -0.00337,-0.0035 -0.00346,0.013197 -8.41e-5,0.016702 0.0014,0.024429 0.0033,0.01717 0.0019,-0.00726 0.00196,-0.020924 1.535e-4,-0.030368 z M 1.9998223,2.855288 c 0.00756,-0.00835 0.012033,-0.015184 0.00995,-0.015184 -0.00209,0 -0.00998,0.00683 -0.017537,0.015184 -0.00756,0.00835 -0.012033,0.015184 -0.00995,0.015184 0.00209,0 0.00998,-0.00683 0.017537,-0.015184 z M 1.320346,2.8363086 c 0.014165,-0.014614 0.024046,-0.026572 0.021958,-0.026572 -0.00209,0 -0.015385,0.011957 -0.02955,0.026572 -0.014165,0.014614 -0.024046,0.026572 -0.021958,0.026572 0.00209,0 0.015385,-0.011957 0.02955,-0.026572 z m 2.9815893,-0.096797 c -0.00159,-0.017746 -0.00291,-0.00323 -0.00291,0.032266 0,0.035492 0.0013,0.050012 0.00291,0.032266 0.00159,-0.017746 0.00159,-0.046785 0,-0.064532 z m -2.2565615,0.062631 c 0.00756,-0.00835 0.012033,-0.015184 0.00995,-0.015184 -0.00209,0 -0.00998,0.00683 -0.017537,0.015184 -0.00756,0.00835 -0.012033,0.015184 -0.00995,0.015184 0.00209,0 0.00998,-0.00683 0.017537,-0.015184 z M 5.622739,2.7395978 c -0.00183,-0.00944 -0.00337,-0.0035 -0.00346,0.013197 -8.44e-5,0.016702 0.0014,0.024429 0.0033,0.01717 0.0019,-0.00726 0.00196,-0.020924 1.534e-4,-0.030368 z m -3.5346412,0.011299 c 0.00944,-0.012041 0.00918,-0.01231 -0.00287,-0.00287 -0.012646,0.00992 -0.016668,0.016152 -0.01042,0.016152 0.00158,0 0.00756,-0.00598 0.013286,-0.013286 z M 1.4929039,2.7292287 c -0.00252,-0.00252 -0.00907,-0.00279 -0.014551,-5.979e-4 -0.00606,0.00242 -0.00426,0.00422 0.00459,0.00459 0.008,3.307e-4 0.012487,-0.00147 0.00996,-0.00399 z m 0.6331535,-0.023883 c 0.00944,-0.012041 0.00917,-0.01231 -0.00287,-0.00287 -0.012646,0.00992 -0.016668,0.016152 -0.01042,0.016152 0.00158,0 0.00756,-0.00598 0.013286,-0.013286 z m 0.037959,-0.045551 c 0.00944,-0.012041 0.00917,-0.01231 -0.00287,-0.00287 -0.012646,0.00992 -0.016668,0.016152 -0.010419,0.016152 0.00158,0 0.00756,-0.00598 0.013286,-0.013286 z m 3.4663141,-0.034075 c -0.00183,-0.00944 -0.00337,-0.00351 -0.00346,0.013197 -8.44e-5,0.016702 0.0014,0.024429 0.0033,0.01717 0.00191,-0.00726 0.00196,-0.020924 1.532e-4,-0.030368 z m -3.428354,-0.011477 c 0.00944,-0.012041 0.00917,-0.01231 -0.00287,-0.00287 -0.012646,0.00992 -0.016668,0.016152 -0.01042,0.016152 0.00158,0 0.00756,-0.00598 0.013286,-0.013286 z m 0.030368,-0.03796 c 0.00944,-0.012041 0.00917,-0.01231 -0.00287,-0.00287 -0.012646,0.00992 -0.016668,0.016152 -0.01042,0.016152 0.00158,0 0.00756,-0.00598 0.013286,-0.013286 z M 4.3095273,2.4662006 c -0.00159,-0.017746 -0.00291,-0.00323 -0.00291,0.032266 0,0.035492 0.0013,0.050012 0.00291,0.032266 0.00159,-0.017746 0.00159,-0.046785 0,-0.064532 z m 1.3283956,0.04564 c -0.00183,-0.00944 -0.00337,-0.0035 -0.00346,0.013197 -8.44e-5,0.016702 0.0014,0.024429 0.0033,0.01717 0.0019,-0.00726 0.00196,-0.020924 1.532e-4,-0.030368 z m -3.3676192,0.018891 c 0.00944,-0.012041 0.00917,-0.01231 -0.00287,-0.00287 -0.012646,0.00992 -0.016668,0.016152 -0.01042,0.016152 0.00158,0 0.00756,-0.00598 0.013286,-0.013286 z m 0.030368,-0.037959 c 0.00944,-0.012041 0.00917,-0.01231 -0.00287,-0.00287 -0.012646,0.00992 -0.016668,0.016152 -0.01042,0.016152 0.00158,0 0.00756,-0.00598 0.013286,-0.013286 z m 0.4369568,-0.041281 c -0.00243,-0.00606 -0.00422,-0.00426 -0.00459,0.00459 -3.175e-4,0.008 0.00146,0.012487 0.00399,0.00996 0.00251,-0.00252 0.00279,-0.00907 6.085e-4,-0.014551 z m -0.3989972,-0.00427 c 0.00944,-0.012041 0.00917,-0.01231 -0.00287,-0.00287 -0.012646,0.00992 -0.016668,0.016152 -0.01042,0.016152 0.00158,0 0.00756,-0.00598 0.013286,-0.013286 z m 3.3067473,-0.045552 c -0.0019,-0.00731 -0.00347,-0.00133 -0.00347,0.013286 0,0.014614 0.00156,0.020593 0.00347,0.013286 0.0019,-0.00731 0.0019,-0.019265 0,-0.026572 z M 2.38701,2.3997693 c 0.00756,-0.00835 0.012033,-0.015184 0.00995,-0.015184 -0.00209,0 -0.00998,0.00683 -0.017537,0.015184 -0.00756,0.00835 -0.012033,0.015184 -0.00995,0.015184 0.00209,0 0.00998,-0.00683 0.017537,-0.015184 z m 3.2659606,-0.096795 c -0.0019,-0.00731 -0.00347,-0.00133 -0.00347,0.013286 0,0.014614 0.00156,0.020593 0.00347,0.013286 0.0019,-0.00731 0.0019,-0.019265 0,-0.026572 z m -2.958488,0.02585 c 0,-0.00144 -0.00769,-0.00913 -0.017081,-0.017082 l -0.017082,-0.014462 0.014462,0.017082 c 0.013592,0.016052 0.019701,0.020538 0.019701,0.014462 z m 1.6226081,-0.109361 c -0.00164,-0.015658 -0.00298,-0.00285 -0.00298,0.02847 0,0.031317 0.00135,0.044128 0.00298,0.02847 0.00164,-0.015658 0.00164,-0.041281 0,-0.056939 z m -1.7233592,0.069434 c -0.00252,-0.00252 -0.00907,-0.00279 -0.014551,-5.979e-4 -0.00606,0.00242 -0.00426,0.00422 0.00459,0.00459 0.008,3.307e-4 0.012487,-0.00147 0.00996,-0.00399 z m 0.03796,0 c -0.00251,-0.00252 -0.00907,-0.00279 -0.014551,-5.979e-4 -0.00606,0.00242 -0.00426,0.00422 0.00459,0.00459 0.008,3.307e-4 0.012487,-0.00147 0.00996,-0.00399 z m 3.0288713,-0.084618 c -0.00191,-0.00731 -0.00347,-0.00133 -0.00347,0.013286 0,0.014614 0.00156,0.020593 0.00347,0.013286 0.0019,-0.00731 0.0019,-0.019265 0,-0.026572 z m 0.00759,-0.098695 c -0.0019,-0.00731 -0.00347,-0.00133 -0.00347,0.013286 0,0.014614 0.00156,0.020593 0.00347,0.013286 0.0019,-0.00731 0.0019,-0.019265 0,-0.026572 z M 4.3246543,2.0032298 c -0.00169,-0.013645 -0.00311,-0.00431 -0.00315,0.020742 -4.55e-5,0.025053 0.00135,0.036218 0.00307,0.02481 0.00172,-0.011408 0.00177,-0.031906 7.75e-5,-0.045551 z m 1.3511197,0.018988 c -0.00193,-0.00739 -0.00363,-0.00318 -0.00378,0.00935 -1.551e-4,0.012527 0.00143,0.01857 0.0035,0.01343 0.00209,-0.00514 0.0022,-0.015389 2.91e-4,-0.022776 z m 0.00759,-0.091103 c -0.00193,-0.00739 -0.00363,-0.00318 -0.00378,0.00935 -1.551e-4,0.012527 0.00143,0.01857 0.0035,0.01343 0.00209,-0.00514 0.0022,-0.015389 2.91e-4,-0.022776 z M 4.3321817,1.8322757 c -0.00175,-0.011483 -0.00316,-0.00209 -0.00316,0.020878 0,0.022966 0.00143,0.032361 0.00316,0.020878 0.00175,-0.011483 0.00175,-0.030273 0,-0.041756 z m 1.3585431,0.01898 c -0.00212,-0.00522 -0.00383,-9.499e-4 -0.00383,0.00949 0,0.010439 0.00172,0.014709 0.00383,0.00949 0.00212,-0.00522 0.00212,-0.01376 0,-0.01898 z m 0.00759,-0.075919 c -0.00212,-0.00522 -0.00383,-9.498e-4 -0.00383,0.00949 0,0.010439 0.00172,0.014709 0.00383,0.00949 0.00212,-0.00522 0.00212,-0.01376 0,-0.01898 z m 0.00782,-0.071979 c -0.00193,-0.00739 -0.00363,-0.00318 -0.00378,0.00935 -1.548e-4,0.012527 0.00143,0.01857 0.0035,0.01343 0.00209,-0.00514 0.0022,-0.015389 2.911e-4,-0.022776 z m -1.7855652,0.00555 c 0.00756,-0.00835 0.012033,-0.015184 0.00995,-0.015184 -0.00209,0 -0.00998,0.00683 -0.017537,0.015184 -0.00756,0.00835 -0.012033,0.015184 -0.00995,0.015184 0.00209,0 0.00998,-0.00683 0.017537,-0.015184 z m 0.1156187,-0.050138 c -0.00251,-0.00252 -0.00907,-0.00279 -0.014552,-6.006e-4 -0.00606,0.00242 -0.00426,0.00422 0.00459,0.00459 0.008,3.307e-4 0.012488,-0.00147 0.00996,-0.00399 z m 1.6774633,-0.019612 c -0.00243,-0.00606 -0.00422,-0.00426 -0.00459,0.00459 -3.175e-4,0.008 0.00146,0.012487 0.00399,0.00996 0.00251,-0.00252 0.00279,-0.00907 6.085e-4,-0.014551 z m 0.00743,-0.068802 c -0.00212,-0.00522 -0.00383,-9.498e-4 -0.00383,0.00949 0,0.010439 0.00172,0.014709 0.00383,0.00949 0.00212,-0.00522 0.00212,-0.013761 0,-0.01898 z m 0.00782,-0.064387 c -0.00193,-0.00739 -0.00363,-0.00318 -0.00378,0.00935 -1.55e-4,0.012527 0.00143,0.01857 0.0035,0.01343 0.00209,-0.00514 0.0022,-0.015389 2.91e-4,-0.022776 z m 0.0079,-0.1479862 c -0.00161,-0.017856 -0.00294,-0.00514 -0.00297,0.028269 -3.04e-5,0.033404 0.0013,0.048014 0.00292,0.032466 0.00164,-0.015548 0.00167,-0.042879 5.32e-5,-0.060735 z m -0.00797,-0.098421 c -0.00243,-0.00606 -0.00422,-0.00426 -0.00459,0.00459 -3.175e-4,0.008 0.00146,0.012487 0.00399,0.00996 0.00251,-0.00252 0.00279,-0.00907 6.086e-4,-0.014551 z m -0.06592,-0.175663 c 0,-0.00136 -0.0094,-0.010755 -0.020878,-0.020878 l -0.020878,-0.018405 0.018404,0.020878 c 0.017203,0.019513 0.02335,0.024359 0.02335,0.018405 z M 5.1552311,1.0275328 c 0.00944,-0.012041 0.00918,-0.01231 -0.00287,-0.00287 -0.00731,0.00573 -0.013287,0.011709 -0.013287,0.013286 0,0.00625 0.00623,0.00223 0.016153,-0.010419 z m 0.399347,-0.00648 c -0.00251,-0.00252 -0.00907,-0.00279 -0.014552,-5.993e-4 -0.00606,0.00242 -0.00426,0.00422 0.00459,0.00459 0.008,3.297e-4 0.012488,-0.00147 0.00996,-0.00399 z M 0.10943571,3.2544507 c -0.004176,-0.00168 -0.0167236,-0.00506 -0.0278846,-0.00751 -0.0219872,-0.00483 -0.0670144,-0.039189 -0.0670144,-0.051137 0,-0.00405 0.00427,-0.0052 0.00949,-0.00256 0.005219,0.00264 0.003137,-3.678e-4 -0.004628,-0.00669 -0.0190780012,-0.015538 -0.0267921,-0.096606 -0.0106293,-0.111704 0.006084,-0.00568 0.009586,-0.015978 0.007782,-0.022877 -0.008428,-0.032228 0.0844154,-0.064655 0.16121116,-0.056305 0.0836736,0.0091 0.13205149,0.041587 0.14706776,0.098767 0.014061,0.053542 -0.0149667,0.1279809 -0.0574561,0.1473404 -0.020061,0.00914 -0.14234658,0.018957 -0.15793887,0.012679 z m 0.009332,-0.016564 c -0.002523,-0.00252 -0.009071,-0.00279 -0.0145512,-5.979e-4 -0.006056,0.00242 -0.004257,0.00422 0.004587,0.00459 0.008003,3.307e-4 0.0124871,-0.00147 0.009964,-0.00399 z M 0.2328931,3.237257 c -0.007259,-0.0019 -0.020924,-0.00197 -0.0303677,-1.533e-4 -0.009444,0.00182 -0.003505,0.00337 0.0131973,0.00345 0.0167022,8.43e-5 0.0244289,-0.0014 0.0171703,-0.0033 z M 0.3159909,3.1116018 c -0.001815,-0.00944 -0.00337,-0.0035 -0.003455,0.013197 -8.427e-5,0.016702 0.001402,0.024429 0.003302,0.01717 0.0019,-0.00726 0.001968,-0.020924 1.532e-4,-0.030368 z M 0.3030295,3.0653868 c 0,-0.00136 -0.009395,-0.010755 -0.0208777,-0.020878 L 0.261274,3.0261038 0.2796792,3.0469818 c 0.0172024,0.019513 0.0233503,0.024359 0.0233503,0.018405 z M 0.11512964,3.0096884 c -0.005219,-0.00211 -0.0137603,-0.00211 -0.0189798,0 -0.005219,0.00211 -9.4906e-4,0.00383 0.00949,0.00383 0.0104389,0 0.0147093,-0.00172 0.00949,-0.00383 z m 0.0835111,0 c -0.005219,-0.00211 -0.0137604,-0.00211 -0.0189798,0 -0.005219,0.00211 -9.4906e-4,0.00383 0.00949,0.00383 0.0104389,0 0.0147093,-0.00172 0.00949,-0.00383 z"
       id="path226" />
  </g>
</svg>
