<?xml version="1.0" encoding="UTF-8" standalone="no"?>
<!-- Created with Inkscape (http://www.inkscape.org/) -->

<svg
   width="24"
   height="24"
   viewBox="0 0 6.3499999 6.35"
   version="1.1"
   id="svg1"
   xmlns:inkscape="http://www.inkscape.org/namespaces/inkscape"
   xmlns:sodipodi="http://sodipodi.sourceforge.net/DTD/sodipodi-0.dtd"
   xmlns="http://www.w3.org/2000/svg"
   xmlns:svg="http://www.w3.org/2000/svg">
  <sodipodi:namedview
     id="namedview1"
     pagecolor="#ffffff"
     bordercolor="#000000"
     borderopacity="0.25"
     inkscape:showpageshadow="2"
     inkscape:pageopacity="0.0"
     inkscape:pagecheckerboard="0"
     inkscape:deskcolor="#d1d1d1"
     inkscape:document-units="mm" />
  <defs
     id="defs1">
    <linearGradient
       id="paint0_linear_218_2522"
       x1="-13.5733"
       y1="9.5511103"
       x2="6.1026101"
       y2="36.559601"
       gradientUnits="userSpaceOnUse"
       gradientTransform="matrix(0.21166668,0,0,0.21166668,-2.7063493e-6,1.0583374)">
      <stop
         stop-color="#FFBE00"
         id="stop1" />
      <stop
         offset="1"
         stop-color="#E85E0A"
         id="stop2" />
    </linearGradient>
  </defs>
  <g
     inkscape:label="Calque 1"
     inkscape:groupmode="layer"
     id="layer1">
    <path
       fill-rule="evenodd"
       clip-rule="evenodd"
       d="m 0.08758115,3.0168193 c 0,0 0.14333602,-0.022915 0.2023995,0.036879 0.0591206,0.059773 0.0203793,0.1834303 -0.0580665,0.1854835 C 0.153466,3.2412347 0.08096339,3.2552682 0.02948521,3.2023092 -0.02199297,3.1493502 -0.00817171,3.0429496 0.08758115,3.0168193 Z M 1.6002059,3.8457548 C 1.4974353,3.7069861 1.4603132,3.2325563 1.4131369,3.2042988 1.3642229,3.1749999 1.1870685,3.4671677 0.83471118,3.4357564 0.68737425,3.4226119 0.53742744,3.3301347 0.44912858,3.2660843 0.45733913,3.1582846 0.45876576,2.9065515 0.6782239,2.9884137 0.81154003,3.0381236 1.0398352,3.1746634 1.2403344,2.929475 1.4620192,2.6583089 1.5842716,2.7370849 1.6576099,2.7960235 c 0.073304,0.058939 0.024458,0.3654827 0.133805,0.2797916 0.1093449,-0.085689 0.5508647,-0.6177852 0.5508647,-0.6177852 0,0 0.3418206,-0.3339656 0.3941869,0.017117 0.052345,0.3510831 0.2752302,0.7401582 0.3343064,0.729088 0.059097,-0.011112 0.7466964,-1.364966 0.8451849,-1.4522997 0.098488,-0.087368 0.430022,-0.075889 0.4142529,0.1481879 -0.015748,0.2240746 -0.049509,1.6168286 -0.049509,1.6168286 0,0 -0.038883,0.3924724 0.024469,0.1827318 0.026268,-0.086974 0.054483,-0.1654175 0.089747,-0.2569421 0.1697143,-0.526322 0.4587875,-1.425446 0.6028266,-1.8887357 0.033105,-0.1108625 0.061637,-0.2060173 0.083778,-0.2791545 l 2.12e-5,-2.01e-4 c 0.00859,-0.033901 0.017166,-0.060752 0.02576,-0.084717 0.012023,-0.03927 0.020172,-0.065249 0.02267,-0.072096 0.00643,-0.017319 0.02449,-0.030544 0.049848,-0.040244 0.025485,-0.01554 0.05279,-0.016346 0.083756,-0.017118 0.079947,-0.00695 0.182753,0.00316 0.2751878,0.028664 0.026924,0.00104 0.056219,0.0094 0.083905,0.028664 0,3.37e-5 0.00167,0.00101 0.004,0.00248 6.35e-4,4.699e-4 0.0013,8.056e-4 0.00196,0.00131 0.00578,0.00389 0.015176,0.01158 0.026035,0.024233 3.175e-4,4.027e-4 6.615e-4,9.062e-4 0.00103,0.00128 0.00449,0.00534 0.00902,0.011647 0.01361,0.01883 0.051626,0.073372 0.083354,0.2086354 0.051562,0.4485214 -0.07929,0.5985871 -0.1406525,1.8300003 -0.1406525,1.8300003 0,0 -0.012213,0.058907 0.1151466,-0.2004483 0.00445,-0.00904 0.010118,-0.016806 0.015346,-0.025104 0.00688,-0.0044 0.014605,-0.01071 0.024172,-0.021844 0.078655,-0.090902 0.290195,-0.1442678 0.4368588,-0.1431946 0.061828,0.00725 0.1136015,0.02232 0.144526,0.04125 0.057891,0.08535 0.023728,0.4003527 0.023728,0.4003527 -0.1220051,0.010941 -0.3546268,0.074547 -0.437071,0.086294 -0.082486,0.011811 -0.2077296,0.5305638 -0.3818678,0.477499 -0.174117,-0.053044 -0.5621443,-0.2888404 -0.5621443,-0.3212465 0,-0.028236 0.030522,-0.372851 0.03846,-0.4617934 5.821e-4,-0.00614 0.00103,-0.011832 0.00153,-0.017505 1.693e-4,-0.00165 3.44e-4,-0.00358 3.44e-4,-0.00358 0.00561,-0.069935 5.821e-4,-0.1005501 -0.032808,-0.030628 -0.028723,0.060134 -0.1537335,0.4449233 -0.2930948,0.8640023 -0.014732,0.036618 -0.27813,0.8088841 -0.3126952,0.9030335 -0.041275,0.1091988 -0.075946,0.1928071 -0.099886,0.2360506 -0.03647,0.047858 -0.085598,0.07783 -0.1541568,0.057721 C 3.9355325,5.2352375 3.7188917,5.006235 3.7168809,4.9494025 3.7127709,4.6289392 3.7329469,2.9058094 3.6527459,3.0493977 c -0.082296,0.1472565 -0.7223125,1.169014 -0.7223125,1.169014 -0.01071,0.00177 -0.018648,0.00143 -0.028067,0.00228 -0.045339,-0.0048 -0.1155489,-0.019071 -0.1349587,-0.061087 -0.00108,-0.00249 -0.00249,-0.00474 -0.00341,-0.00732 -9.261e-4,-0.00262 -0.00198,-0.00552 -0.00358,-0.010308 -0.0087,-0.028109 -0.012256,-0.058653 -0.019918,-0.083672 C 2.711892,3.9647009 2.6660662,3.8305254 2.6179966,3.6940637 2.5443366,3.4613574 2.4683906,3.223317 2.4559023,3.1970492 2.4314759,3.1456206 2.3958948,3.1673016 2.3639543,3.1970069 2.2211004,3.314376 1.9176551,3.8324727 1.6436102,3.8608149 c -0.013811,0.0014 -0.028423,-0.00474 -0.043383,-0.015071 z"
       fill="url(#paint0_linear_218_2522)"
       id="path1"
       style="fill:url(#paint0_linear_218_2522);stroke-width:0.264583" />
  </g>
</svg>
