<svg width="24" height="24" viewBox="0 0 24 24" fill="none" xmlns="http://www.w3.org/2000/svg">
<path d="M11.9972 5.99651C11.4208 4.63126 10.3654 3.52404 9.02967 2.88341C6.76572 1.83215 4.5518 1.97607 2.5255 3.43719C0.499192 4.89832 -0.235656 6.90384 0.0645369 9.34112C0.455414 12.4887 2.1909 14.8696 4.44235 16.9377C6.69872 18.9377 9.24617 20.5825 11.9972 21.8154C14.7493 20.5828 17.2978 18.938 19.5551 16.9377C21.8098 14.8696 23.5421 12.4887 23.933 9.34112C24.2457 6.90384 23.4702 4.87641 21.4721 3.43719C19.4739 1.99797 17.2318 1.83215 14.9678 2.88341C13.6317 3.52438 12.5753 4.63137 11.9972 5.99651Z" fill="url(#paint0_linear_75_481)"/>
<path d="M6.24367 2.20129C6.24367 2.20129 1.39055 5.16733 3.0635 9.75407C4.73645 14.3408 11.1937 11.8597 11.1937 11.8597C11.1937 11.8597 17.6635 9.37861 19.3239 13.9654C19.6775 14.8917 19.7652 15.8984 19.5772 16.8719V16.8876C21.8037 14.832 23.511 12.4667 23.8988 9.3442C24.2115 6.90691 23.4359 4.87949 21.4378 3.44026C19.4396 2.00105 17.1976 1.83522 14.9336 2.88647C13.6109 3.53338 12.5677 4.63838 11.9974 5.99644C11.421 4.6312 10.3655 3.52398 9.02984 2.88335C8.15105 2.45788 7.1915 2.22533 6.21553 2.20129H6.24367Z" fill="#FF82AC"/>
<defs>
<linearGradient id="paint0_linear_75_481" x1="11.9847" y1="22.1377" x2="11.9847" y2="2.70507" gradientUnits="userSpaceOnUse">
<stop stop-color="#FF4C47"/>
<stop offset="1" stop-color="#FF81AB"/>
</linearGradient>
</defs>
</svg>
