<svg width="24" height="24" viewBox="0 0 24 24" fill="none" xmlns="http://www.w3.org/2000/svg">
<path d="M18.7639 17.9152C18.3086 18.668 17.7395 19.3735 17.118 19.9551C15.9935 21.0078 14.5997 21.7836 13.0773 22.2061C13.2566 21.5934 13.3783 20.9623 13.4395 20.3276C13.4808 19.8999 13.5143 19.2148 13.4395 18.3804C13.3475 17.353 13.1089 16.333 12.7303 15.348C13.0515 14.6372 13.4542 13.9651 13.9278 13.3495C14.5703 12.5144 15.2014 11.9625 15.5205 11.7078C16.1397 11.2132 16.8398 10.7912 17.5451 10.4873C18.2084 10.2014 18.9062 9.99867 19.6205 9.88393C19.7436 10.2732 19.8479 10.6723 19.9304 11.0683C20.0798 11.9839 20.1528 12.6884 20.1606 12.7658C20.2292 13.4422 20.1121 15.6859 18.7639 17.9152ZM11.8773 13.5866C11.5256 12.9928 11.1075 12.4132 10.6342 11.8634C10.4389 11.6365 10.1714 11.3257 9.76351 10.9501C9.59886 10.7985 9.25193 10.4936 8.77818 10.154C8.4813 9.94111 8.17061 9.74096 7.85385 9.55844C7.90639 9.06516 7.9911 8.57052 8.10595 8.08731C8.49914 6.43325 9.16746 5.19361 9.65888 4.44483C9.89203 4.0897 10.3959 3.37999 11.151 2.61695C11.3848 2.38074 11.6299 2.15227 11.8807 1.93695C13.0418 2.86506 13.966 3.96551 14.628 5.20861C14.8502 5.62566 15.2684 6.5004 15.5739 7.67289C15.7347 8.28988 15.8465 8.92413 15.9065 9.55917C15.0124 10.0768 14.2034 10.707 13.5015 11.4329C13.0779 11.871 12.4572 12.5961 11.8773 13.5866ZM11.9264 19.2785C11.9225 20.3069 11.7451 21.3462 11.399 22.3691C10.1531 22.131 7.89537 21.4477 6.13523 19.5122C4.83924 18.0871 4.29397 16.5218 4.11478 16.0075L4.10695 15.9849C3.71472 14.8605 3.53986 13.6944 3.58727 12.519C3.59894 12.2313 3.67091 11.1943 4.1084 9.92711C4.11329 9.91285 4.118 9.89941 4.12243 9.88677C4.1509 9.89186 4.183 9.89768 4.21791 9.90429C5.16861 10.0822 5.82051 10.3214 6.05654 10.4159C6.05696 10.4161 6.14267 10.4506 6.2303 10.4881C7.23245 10.9174 8.13587 11.6413 8.38914 11.8532C9.85736 13.0822 10.5734 14.4052 10.8131 14.917C10.9453 15.199 11.0625 15.4955 11.1327 15.6727L11.1403 15.6921C11.4164 16.3898 11.677 17.0487 11.8191 17.8567C11.9296 18.4846 11.9277 18.9624 11.9264 19.2785ZM21.7182 12.7852C21.7101 12.2683 21.6644 11.8835 21.6399 11.6768C21.4484 10.0672 20.9785 8.98588 20.7852 8.5957C20.7287 8.48134 20.6692 8.36795 20.6083 8.25871L20.5762 8.20091L20.5102 8.20531C20.4445 8.20978 20.3348 8.21764 20.1997 8.23049C19.0789 8.33636 18.1978 8.58112 17.6562 8.7679C17.5728 8.79654 17.4881 8.82702 17.4031 8.85881C17.3943 8.79775 17.3837 8.72682 17.3713 8.64848C17.1419 7.20443 16.749 6.11552 16.5352 5.59491C16.3104 5.0476 16.0377 4.49834 15.7465 4.00665C15.7104 3.94573 14.8471 2.49943 13.5189 1.26288C13.2846 1.04472 12.7972 0.590953 12.057 0.110794C12.0081 0.0791043 11.9675 0.0534051 11.9399 0.0359844L11.8829 1.15385e-07L11.8267 0.0371978C11.8012 0.0540297 11.7622 0.0799003 11.7148 0.111902C10.0123 1.26246 9.05726 2.63101 8.59829 3.28877C8.30349 3.71147 7.55828 4.84908 7.00733 6.27927C6.58875 7.36603 6.4372 8.21795 6.38417 8.62902C6.37454 8.70362 6.36578 8.77922 6.35792 8.85483C6.35792 8.85483 6.10426 8.75144 5.63668 8.61904C5.63086 8.6172 5.62535 8.61537 5.61957 8.61353C5.61292 8.61142 5.56228 8.59566 5.45554 8.56931C4.90404 8.42232 4.11668 8.25276 3.13804 8.1492L2.86624 8.80821C2.86603 8.80873 2.86613 8.80911 2.86593 8.80963C2.78599 8.98418 2.70751 9.16483 2.6388 9.34721C2.12879 10.7002 1.92258 12.1362 2.02589 13.6151C2.08844 14.5107 2.25167 15.3813 2.51111 16.2029C3.23557 18.4976 4.54032 20.4256 6.38902 21.9336C6.74041 22.2201 7.39454 22.7535 8.36265 23.2038C9.86148 23.9011 11.226 24 11.8786 24C11.9407 24 11.9965 23.9991 12.0452 23.9977C12.0646 23.9971 14.001 23.9321 15.8332 22.9227C16.1044 22.7733 16.3753 22.5994 16.3781 22.5976C16.8524 22.2918 17.1919 22.011 17.4165 21.8251C18.3847 21.0244 19.2299 20.0477 19.9286 18.9222C20.8618 17.419 21.2695 16.0437 21.4295 15.3578C21.6978 14.2074 21.7255 13.2523 21.7182 12.7852Z" fill="#FFFFFF"/>
</svg>
