<?xml version="1.0" encoding="UTF-8" standalone="no"?>
<!-- Created with Inkscape (http://www.inkscape.org/) -->

<svg
   width="24"
   height="24"
   viewBox="0 0 6.3499999 6.35"
   version="1.1"
   id="svg1"
   sodipodi:docname="bonfire.svg"
   inkscape:version="1.3 (0e150ed, 2023-07-21)"
   xml:space="preserve"
   xmlns:inkscape="http://www.inkscape.org/namespaces/inkscape"
   xmlns:sodipodi="http://sodipodi.sourceforge.net/DTD/sodipodi-0.dtd"
   xmlns="http://www.w3.org/2000/svg"
   xmlns:svg="http://www.w3.org/2000/svg"><sodipodi:namedview
     id="namedview1"
     pagecolor="#ffffff"
     bordercolor="#000000"
     borderopacity="0.25"
     inkscape:showpageshadow="2"
     inkscape:pageopacity="0.0"
     inkscape:pagecheckerboard="0"
     inkscape:deskcolor="#d1d1d1"
     inkscape:document-units="mm"
     inkscape:zoom="9.8333333"
     inkscape:cx="11.949153"
     inkscape:cy="12"
     inkscape:window-width="1472"
     inkscape:window-height="449"
     inkscape:window-x="0"
     inkscape:window-y="371"
     inkscape:window-maximized="0"
     inkscape:current-layer="layer1" /><defs
     id="defs1"><clipPath
       clipPathUnits="userSpaceOnUse"
       id="clipPath3"><path
         d="M 0,1600 H 1600 V 0 H 0 Z"
         transform="translate(-999.35282,-629.20714)"
         id="path3" /></clipPath></defs><g
     inkscape:label="Calque 1"
     inkscape:groupmode="layer"
     id="layer1"><path
       id="path1"
       style="fill:#f49879;fill-opacity:1;fill-rule:nonzero;stroke:none;stroke-width:0.352777"
       d="M 3.1750001,5e-8 A 3.175,3.175 0 0 0 4.5e-8,3.175 3.175,3.175 0 0 0 3.1750001,6.3499999 3.175,3.175 0 0 0 6.35,3.175 3.175,3.175 0 0 0 3.1750001,5e-8 Z" /><path
       id="path2"
       d="m 0,0 c -13.145,-21.737 -29.577,-42.107 -47.522,-58.901 -32.471,-30.394 -72.714,-52.796 -116.67,-64.995 5.177,17.692 8.69,35.913 10.457,54.241 1.191,12.348 2.159,32.129 0.001,56.221 -2.658,29.666 -9.546,59.116 -20.478,87.559 9.273,20.522 20.901,39.929 34.576,57.703 18.55,24.112 36.774,40.048 45.986,47.403 17.881,14.279 38.095,26.466 58.46,35.24 19.152,8.253 39.299,14.108 59.924,17.421 3.553,-11.239 6.566,-22.764 8.946,-34.198 4.316,-26.436 6.423,-46.779 6.648,-49.012 C 42.31,129.151 38.928,64.368 0,0 m -198.842,124.982 c -10.155,17.144 -22.227,33.88 -35.892,49.754 -5.639,6.552 -13.363,15.526 -25.141,26.371 -4.754,4.378 -14.771,13.182 -28.45,22.988 -8.572,6.146 -17.543,11.925 -26.689,17.195 1.517,14.243 3.963,28.525 7.279,42.477 11.353,47.759 30.65,83.552 44.839,105.172 6.732,10.254 21.28,30.746 43.083,52.778 6.75,6.82 13.828,13.417 21.07,19.634 33.526,-26.798 60.209,-58.572 79.325,-94.465 6.414,-12.042 18.491,-37.299 27.312,-71.153 4.643,-17.815 7.87,-36.128 9.602,-54.464 -25.817,-14.947 -49.174,-33.142 -69.442,-54.102 -12.231,-12.649 -30.151,-33.586 -46.896,-62.185 m 1.419,-164.347 c -0.115,-29.693 -5.236,-59.701 -15.228,-89.236 -35.974,6.873 -101.164,26.604 -151.986,82.49 -37.42,41.147 -53.164,86.344 -58.338,101.193 l -0.226,0.653 c -11.325,32.465 -16.374,66.134 -15.005,100.073 0.337,8.306 2.415,38.249 15.047,74.837 0.141,0.412 0.277,0.8 0.405,1.165 0.822,-0.147 1.749,-0.315 2.757,-0.506 27.45,-5.138 46.273,-12.043 53.088,-14.773 0.012,-0.006 2.487,-1.001 5.017,-2.084 28.936,-12.395 55.021,-33.297 62.334,-39.414 42.393,-35.487 63.069,-73.687 69.99,-88.465 3.815,-8.142 7.201,-16.704 9.226,-21.82 l 0.22,-0.559 c 7.971,-20.146 15.497,-39.171 19.6,-62.5 3.19,-18.13 3.135,-31.927 3.099,-41.054 M 85.302,148.12 c -0.234,14.926 -1.553,26.036 -2.261,32.006 -5.528,46.473 -19.098,77.696 -24.677,88.962 -1.633,3.302 -3.352,6.576 -5.109,9.73 l -0.928,1.669 -1.905,-0.127 c -1.898,-0.129 -5.064,-0.356 -8.965,-0.727 -32.362,-3.057 -57.801,-10.124 -73.441,-15.517 -2.408,-0.827 -4.853,-1.707 -7.306,-2.625 -0.254,1.763 -0.56,3.811 -0.919,6.073 -6.625,41.695 -17.969,73.136 -24.143,88.168 -6.489,15.803 -14.364,31.662 -22.772,45.859 -1.041,1.759 -25.968,43.519 -64.319,79.223 -6.764,6.299 -20.839,19.401 -42.211,33.265 -1.41,0.915 -2.584,1.657 -3.381,2.16 l -1.645,1.039 -1.624,-1.074 c -0.734,-0.486 -1.862,-1.233 -3.229,-2.157 -49.158,-33.221 -76.734,-72.736 -89.986,-91.728 -8.512,-12.205 -30.029,-45.052 -45.937,-86.347 -12.086,-31.379 -16.462,-55.977 -17.993,-67.846 -0.278,-2.154 -0.531,-4.337 -0.758,-6.52 0,0 -7.324,2.985 -20.825,6.808 -0.168,0.053 -0.327,0.106 -0.494,0.159 -0.192,0.061 -1.654,0.516 -4.736,1.277 -15.924,4.244 -38.658,9.14 -66.915,12.13 l -7.848,-19.028 c -0.006,-0.015 -0.003,-0.026 -0.009,-0.041 -2.308,-5.04 -4.574,-10.256 -6.558,-15.522 -14.726,-39.067 -20.68,-80.53 -17.697,-123.231 1.806,-25.857 6.519,-50.996 14.01,-74.719 20.918,-66.257 58.591,-121.925 111.97,-165.465 10.146,-8.273 29.033,-23.676 56.986,-36.678 43.277,-20.131 82.677,-22.988 101.518,-22.988 1.795,0 3.406,0.027 4.812,0.065 0.559,0.018 56.47,1.895 109.372,31.041 7.831,4.313 15.653,9.336 15.734,9.386 13.694,8.829 23.498,16.938 29.984,22.305 27.955,23.12 52.358,51.322 72.532,83.817 26.946,43.404 38.718,83.113 43.336,102.92 7.747,33.215 8.549,60.793 8.337,74.278"
       style="opacity:1;fill:#ffffff;fill-opacity:1;fill-rule:nonzero;stroke:none;stroke-width:62.6593"
       transform="matrix(0.00563009,0,0,-0.00563009,4.2973751,4.1365796)"
       clip-path="url(#clipPath3)" /></g></svg>
