<?xml version="1.0" encoding="UTF-8" standalone="no"?>
<!-- Created with Inkscape (http://www.inkscape.org/) -->

<svg
   width="24"
   height="24"
   viewBox="0 0 6.3499999 6.35"
   version="1.1"
   id="svg1"
   xmlns:inkscape="http://www.inkscape.org/namespaces/inkscape"
   xmlns:sodipodi="http://sodipodi.sourceforge.net/DTD/sodipodi-0.dtd"
   xmlns="http://www.w3.org/2000/svg"
   xmlns:svg="http://www.w3.org/2000/svg">
  <sodipodi:namedview
     id="namedview1"
     pagecolor="#ffffff"
     bordercolor="#000000"
     borderopacity="0.25"
     inkscape:showpageshadow="2"
     inkscape:pageopacity="0.0"
     inkscape:pagecheckerboard="0"
     inkscape:deskcolor="#d1d1d1"
     inkscape:document-units="mm" />
  <defs
     id="defs1" />
  <g
     inkscape:label="Calque 1"
     inkscape:groupmode="layer"
     id="layer1">
    <g
       id="g7"
       transform="matrix(0.03826961,0,0,0.03826961,0.28697015,-3.0835828e-7)"
       style="stroke-width:6.91367">
      <path
         fill-rule="evenodd"
         clip-rule="evenodd"
         d="m 83.0402,0.00201169 c -3.4097,0 -6.9455,0.02562571 -8.7718,0 C 64.3121,-0.137692 66.5557,7.02701 67.8824,12.7656 c 1.8631,8.0593 4.7713,22.3352 6.386,28.718 0.7606,3.0067 1.7688,7.9772 6.381,7.9772 1.149,0 4.0307,0 4.7827,0 4.459,0 5.5514,-4.6816 6.3819,-7.9772 1.5974,-6.3385 4.5557,-20.7005 6.3818,-28.718 1.3653,-5.99425 3.2602,-12.76358831 -6.3818,-12.76358831 -1.6117,0 -6.6981,0 -8.7738,0 z"
         fill="#fa005c"
         id="path1"
         style="stroke-width:47.7988" />
      <path
         fill-rule="evenodd"
         clip-rule="evenodd"
         d="m 24.3268,24.2763 c -2.411,2.4111 -4.8931,4.9294 -6.2026,6.2027 -7.139,6.9414 -0.4863,10.4211 4.5096,13.5408 7.0163,4.3813 19.1672,12.4195 24.8223,15.7911 2.6639,1.5882 6.8915,4.39 10.1528,1.1286 0.8125,-0.8124 2.8501,-2.8501 3.3819,-3.3818 3.1529,-3.153 0.615,-7.2358 -1.1281,-10.1535 C 56.5102,41.7928 48.4466,29.5454 44.0686,22.5849 40.7955,17.381 37.3488,11.2544 30.5308,18.0723 c -1.1396,1.1397 -4.7362,4.7363 -6.204,6.204 z"
         fill="#02f1e6"
         id="path2"
         style="stroke-width:47.7988" />
      <path
         fill-rule="evenodd"
         clip-rule="evenodd"
         d="m 141.623,24.3268 c -2.411,-2.411 -4.93,-4.8931 -6.203,-6.2026 -6.941,-7.139 -10.421,-0.4863 -13.541,4.5096 -4.381,7.0163 -12.419,19.1672 -15.791,24.8223 -1.588,2.6639 -4.39,6.8915 -1.128,10.1528 0.812,0.8125 2.85,2.8501 3.382,3.3819 3.152,3.1529 7.235,0.615 10.153,-1.1281 5.611,-3.3525 17.859,-11.4161 24.819,-15.7941 5.204,-3.2731 11.331,-6.7198 4.513,-13.5378 -1.14,-1.1396 -4.736,-4.7362 -6.204,-6.204 z"
         fill="#d538ff"
         id="path3"
         style="stroke-width:47.7988" />
      <path
         fill-rule="evenodd"
         clip-rule="evenodd"
         d="m 141.604,141.575 c 2.411,-2.411 4.893,-4.929 6.203,-6.203 7.139,-6.941 0.486,-10.421 -4.51,-13.54 -7.016,-4.382 -19.167,-12.42 -24.822,-15.792 -2.664,-1.588 -6.891,-4.39 -10.153,-1.128 -0.812,0.812 -2.85,2.85 -3.382,3.382 -3.153,3.153 -0.615,7.235 1.128,10.153 3.353,5.612 11.417,17.859 15.795,24.819 3.273,5.204 6.719,11.331 13.537,4.513 1.14,-1.14 4.737,-4.736 6.204,-6.204 z"
         fill="#fa005c"
         id="path4"
         style="stroke-width:47.7988" />
      <path
         fill-rule="evenodd"
         clip-rule="evenodd"
         d="m 24.3315,141.573 c 2.4111,2.411 4.9294,4.893 6.2027,6.202 6.9413,7.139 10.4211,0.486 13.5408,-4.509 4.3813,-7.017 12.4195,-19.168 15.791,-24.823 1.5883,-2.664 4.39,-6.891 1.1287,-10.153 -0.8124,-0.812 -2.8501,-2.85 -3.3819,-3.381 -3.1529,-3.153 -7.2358,-0.615 -10.1534,1.128 -5.6115,3.352 -17.8588,11.416 -24.8193,15.794 -5.2039,3.273 -11.3306,6.72 -4.5126,13.538 1.1396,1.139 4.7363,4.736 6.204,6.204 z"
         fill="#d538ff"
         id="path5"
         style="stroke-width:47.7988" />
      <path
         fill-rule="evenodd"
         clip-rule="evenodd"
         d="m 83.2881,165.926 c 3.4098,0 6.9456,-0.025 8.7719,0 9.956,0.14 7.7127,-7.025 6.386,-12.763 -1.8632,-8.06 -4.7713,-22.336 -6.386,-28.718 -0.7606,-3.007 -1.7688,-7.978 -6.3811,-7.978 -1.1489,0 -4.0306,0 -4.7826,0 -4.459,0 -5.5514,4.682 -6.382,7.978 -1.5973,6.338 -4.5556,20.7 -6.3817,28.718 -1.3653,5.994 -3.2603,12.763 6.3817,12.763 1.6117,0 6.6981,0 8.7738,0 z"
         fill="#02f1e6"
         id="path6"
         style="stroke-width:47.7988" />
      <path
         fill-rule="evenodd"
         clip-rule="evenodd"
         d="m 0.00201169,82.9688 c 0,3.4098 0.02562581,6.9456 0,8.7719 C -0.137692,101.697 7.02701,99.4533 12.7656,98.1267 c 8.0593,-1.8632 22.3352,-4.7714 28.718,-6.386 3.0067,-0.7607 7.9772,-1.7689 7.9772,-6.3811 0,-1.149 0,-4.0307 0,-4.7827 0,-4.4589 -4.6816,-5.5514 -7.9772,-6.3819 C 35.1451,72.5977 20.7831,69.6394 12.7656,67.8132 6.77136,66.4479 0.00201169,64.5529 0.00201169,74.195 c 0,1.6117 0,6.6981 0,8.7738 z"
         fill="#fa005c"
         id="path7"
         style="stroke-width:47.7988" />
    </g>
  </g>
</svg>
