<svg width="24" height="24" viewBox="0 0 24 24" fill="none" xmlns="http://www.w3.org/2000/svg">
<g clip-path="url(#clip0_1664_3499)">
<path d="M12.0003 0C18.6273 0 24 5.35348 24 11.9572C24 18.5608 18.6273 23.9143 12.0003 23.9143C5.37275 23.9143 0 18.5608 0 11.9572C0 5.35348 5.37275 0 12.0003 0ZM8.65897 15.3291L8.49755 15.3324C7.92616 15.3543 7.38389 15.5903 6.97833 15.9934L6.87736 16.101C6.48742 16.5361 6.29212 17.0575 6.29212 17.6687L6.29478 17.8182C6.32002 18.4094 6.54322 18.9142 6.95707 19.344L7.06468 19.447C7.50245 19.8416 8.02458 20.0375 8.63838 20.0375H8.66694L8.82504 20.0329C9.38687 20.0047 9.91836 19.7695 10.317 19.3726L10.4193 19.2636C10.8119 18.8219 11.0079 18.3031 11.0159 17.6953L11.0132 17.5458C10.9866 16.9552 10.7588 16.4497 10.3403 16.0219L10.2327 15.919C9.79623 15.5237 9.27476 15.3291 8.65964 15.3291H8.65897ZM15.4779 4.4082L14.4396 6.45553L14.6522 6.56713C15.0124 6.76817 15.3512 7.00544 15.6632 7.27526L15.7927 7.39218C15.8784 7.47189 15.9635 7.55426 16.0485 7.63996L16.1707 7.77281L16.2903 7.91231L16.4437 8.09034C16.5939 8.2697 16.7354 8.45504 16.8636 8.65233L16.9645 8.81309L17.0642 8.97517L17.1758 9.18442C17.2834 9.39567 17.3791 9.61156 17.4574 9.83742L17.5385 10.0726C17.7152 10.6273 17.8002 11.2258 17.8002 11.8542L17.7962 12.1026C17.7784 12.7345 17.6549 13.3589 17.4309 13.95L17.3339 14.1838C17.2648 14.3386 17.1891 14.4907 17.108 14.6422L17.0296 14.7757C16.9765 14.8634 16.922 14.9484 16.8636 15.0355L16.7281 15.2427C16.5886 15.4486 16.4384 15.6506 16.271 15.8472L16.1627 15.9701L16.0485 16.099V16.1189L15.9482 16.2053L15.8485 16.2923L15.6599 16.4517C15.2848 16.7579 14.8753 17.0192 14.4396 17.2303L15.5051 19.2716L15.7529 19.1461C16.3397 18.8385 16.8859 18.4592 17.3791 18.0168L17.4163 17.9676L17.4574 17.9158L17.5684 17.8208L17.6813 17.7238L17.7338 17.6747L17.9364 17.4634C18.7289 16.6118 19.3141 15.6718 19.6855 14.6422L19.7592 14.3984C19.8057 14.2337 19.8469 14.0663 19.8847 13.9002L19.9445 13.6205C20.0555 13.0559 20.1086 12.466 20.1086 11.8535L20.1066 11.5626C20.0942 11.0061 20.0277 10.4521 19.908 9.90849L19.8349 9.58964C19.7837 9.38292 19.7264 9.17779 19.6629 8.97451L19.5499 8.69551C19.229 7.94882 18.797 7.25499 18.2685 6.63755L18.0932 6.44158C17.976 6.31266 17.8562 6.1862 17.7338 6.06228L17.7032 6.03438L17.6806 6.01113L17.5571 5.84041L17.5186 5.82646L17.4814 5.81317L17.2768 5.62451C16.8752 5.264 16.4371 4.94651 15.9694 4.67724L15.9495 4.65067L15.9269 4.62875L15.7775 4.55036C15.6792 4.49955 15.5792 4.45258 15.4779 4.4082ZM5.0705 9.32791L4.9197 9.33057C4.32384 9.35647 3.813 9.57834 3.3779 9.99552L3.27626 10.1038C2.88632 10.5422 2.69036 11.067 2.69036 11.6808L2.69235 11.8309C2.71693 12.4255 2.94013 12.9356 3.35664 13.3668L3.46492 13.4704C3.90534 13.8663 4.43145 14.0643 5.0499 14.0643H5.0778L5.23723 14.0596C5.80276 14.0311 6.33764 13.7939 6.73852 13.394L6.84215 13.2857C7.23607 12.8426 7.4327 12.3205 7.44001 11.7094L7.43801 11.5586C7.41211 10.9647 7.1816 10.4559 6.7631 10.0247L6.65482 9.92112C6.21573 9.52454 5.68961 9.32857 5.07116 9.32857L5.0705 9.32791ZM14.2177 10.6711H10.2287V13.1396H14.2177V10.6711ZM8.59786 3.42373L8.44773 3.42639C7.87134 3.4449 7.32344 3.68135 6.91456 4.08802L6.81358 4.19497C6.42564 4.63074 6.22835 5.15154 6.22835 5.76468L6.23167 5.9261C6.2609 6.512 6.48343 7.01354 6.8933 7.44067L7.00091 7.54297C7.43868 7.93689 7.96147 8.13219 8.57793 8.13219H8.61114L8.76924 8.12754C9.33016 8.09876 9.86061 7.86358 10.2586 7.46724L10.3682 7.34966C10.7535 6.91123 10.9461 6.39309 10.9547 5.79125L10.9521 5.64178C10.9242 5.0499 10.6963 4.54372 10.2812 4.11592L10.1735 4.01295C9.73511 3.6177 9.21299 3.4244 8.59786 3.4244V3.42373Z" fill="url(#paint0_linear_1664_3499)"/>
</g>
<defs>
<linearGradient id="paint0_linear_1664_3499" x1="319.368" y1="334.011" x2="2107.31" y2="2037.81" gradientUnits="userSpaceOnUse">
<stop stop-color="#FFCD05"/>
<stop offset="1" stop-color="#D89124"/>
</linearGradient>
<clipPath id="clip0_1664_3499">
<rect width="24" height="24" fill="white"/>
</clipPath>
</defs>
</svg>
