<svg width="24" height="24" viewBox="0 0 24 24" fill="none" xmlns="http://www.w3.org/2000/svg">
<path d="M0 21.8636L12 1.13635L24 21.8636H0ZM3.76364 19.6818H20.2364L12 5.49999L3.76364 19.6818ZM12 18.5909C12.3091 18.5909 12.5682 18.4864 12.7773 18.2773C12.9864 18.0682 13.0909 17.8091 13.0909 17.5C13.0909 17.1909 12.9864 16.9318 12.7773 16.7227C12.5682 16.5136 12.3091 16.4091 12 16.4091C11.6909 16.4091 11.4318 16.5136 11.2227 16.7227C11.0136 16.9318 10.9091 17.1909 10.9091 17.5C10.9091 17.8091 11.0136 18.0682 11.2227 18.2773C11.4318 18.4864 11.6909 18.5909 12 18.5909ZM10.9091 15.3182H13.0909V9.86362H10.9091V15.3182Z" fill="white"/>
</svg>
