<svg width="24" height="24" viewBox="0 0 24 24" fill="none" xmlns="http://www.w3.org/2000/svg">
<g clip-path="url(#clip0_1664_3518)">
<path fill-rule="evenodd" clip-rule="evenodd" d="M0 2C0 0.89543 0.895431 0 2 0H22C23.1046 0 24 0.895431 24 2V22C24 23.1046 23.1046 24 22 24H2C0.89543 24 0 23.1046 0 22V2ZM7.15105 15.2615H4.35902C4.307 15.2616 4.2555 15.2719 4.20748 15.2919C4.15946 15.3119 4.11586 15.3412 4.07918 15.378C4.0425 15.4149 4.01347 15.4587 3.99375 15.5068C3.97402 15.555 3.964 15.6065 3.96425 15.6585C3.96425 15.6585 3.96521 15.6585 3.96521 15.6611H3.96425V17.6531H3.96521L3.96425 17.6547C3.96425 17.8731 4.13999 18.0526 4.35902 18.0526H7.15105V19.3815H3.66722V19.3783C3.53189 19.3784 3.39786 19.3519 3.27278 19.3003C3.1477 19.2486 3.03403 19.1728 2.93826 19.0772C2.84249 18.9816 2.76651 18.868 2.71466 18.743C2.6628 18.618 2.63609 18.484 2.63605 18.3487V14.9613C2.63689 14.6886 2.74596 14.4273 2.93931 14.2349C3.13266 14.0425 3.39446 13.9347 3.66722 13.9352H7.15105V15.2615ZM8.07981 11.9623C8.13225 11.8354 8.15916 11.6994 8.15899 11.5621V5.70143C8.15899 5.42429 8.04892 5.15849 7.85298 4.96249C7.65704 4.76649 7.39127 4.65633 7.11413 4.65625H3.67774C3.5405 4.65621 3.4046 4.68322 3.27781 4.73574C3.15102 4.78826 3.03582 4.86525 2.93881 4.96232C2.8418 5.05939 2.76488 5.17463 2.71243 5.30146C2.65999 5.42828 2.63307 5.56419 2.63319 5.70143V9.13719C2.63302 9.27441 2.65993 9.41031 2.71236 9.53712C2.7648 9.66392 2.84173 9.77914 2.93876 9.87617C3.03579 9.97319 3.151 10.0501 3.27781 10.1026C3.40461 10.155 3.54052 10.1819 3.67774 10.1817H6.00273V8.83506H4.38068C4.32789 8.83498 4.27564 8.82448 4.22692 8.80416C4.1782 8.78385 4.13397 8.75412 4.09677 8.71667C4.05956 8.67923 4.03011 8.63481 4.0101 8.58596C3.9901 8.53712 3.97993 8.4848 3.98018 8.43202V6.40596C3.98005 6.35327 3.99032 6.30108 4.01038 6.25236C4.03045 6.20364 4.05993 6.15936 4.09713 6.12204C4.13432 6.08472 4.17851 6.05511 4.22717 6.03489C4.27582 6.01466 4.32799 6.00423 4.38068 6.00419H6.41087C6.63308 6.00419 6.81137 6.18407 6.81137 6.40596V10.8579C6.81137 11.0792 6.63308 11.261 6.41087 11.261H2.63287V12.6076H7.11413C7.25142 12.6077 7.38738 12.5807 7.51423 12.5282C7.64108 12.4757 7.75632 12.3987 7.85337 12.3016C7.95042 12.2045 8.02737 12.0892 8.07981 11.9623ZM21.3627 19.3786H20.0345V15.2622H19.1017C19.0496 15.2621 18.9981 15.2724 18.95 15.2923C18.9019 15.3122 18.8583 15.3415 18.8215 15.3783C18.7848 15.4152 18.7557 15.4589 18.7359 15.5071C18.7161 15.5552 18.7061 15.6068 18.7063 15.6588V19.3786H17.3787V15.2622H16.445C16.3929 15.2622 16.3414 15.2725 16.2934 15.2925C16.2454 15.3124 16.2017 15.3417 16.165 15.3785C16.1283 15.4154 16.0992 15.4591 16.0794 15.5072C16.0596 15.5553 16.0494 15.6068 16.0496 15.6588V19.3821H14.722V14.9619C14.7225 14.6893 14.8313 14.428 15.0244 14.2355C15.2175 14.043 15.4792 13.9351 15.7519 13.9355H21.3624L21.3627 19.3786ZM21.2867 11.9622C21.3392 11.8354 21.3661 11.6994 21.3659 11.5621L21.3656 5.70143C21.3655 5.42437 21.2554 5.15867 21.0596 4.96269C20.8637 4.76672 20.5981 4.6565 20.321 4.65625H16.8856C16.7483 4.65613 16.6123 4.68307 16.4854 4.73555C16.3585 4.78802 16.2432 4.865 16.1461 4.96208C16.049 5.05915 15.972 5.17442 15.9195 5.30129C15.867 5.42815 15.84 5.56413 15.8401 5.70143V9.13719C15.84 9.27442 15.8671 9.41032 15.9196 9.53711C15.9721 9.6639 16.0491 9.7791 16.1462 9.87611C16.2432 9.97312 16.3585 10.05 16.4853 10.1025C16.6121 10.1549 16.748 10.1819 16.8853 10.1817H19.2093V8.83506H17.5882C17.3682 8.83506 17.1887 8.65455 17.1887 8.43202V6.40596C17.1885 6.29974 17.2305 6.19779 17.3054 6.12247C17.3803 6.04715 17.482 6.00461 17.5882 6.00419H19.6181C19.6709 6.00407 19.7232 6.01437 19.7721 6.03451C19.8209 6.05465 19.8653 6.08423 19.9027 6.12155C19.9401 6.15887 19.9697 6.20321 19.9899 6.25202C20.0101 6.30082 20.0205 6.35314 20.0205 6.40596V10.8579C20.0205 11.0792 19.8409 11.261 19.6181 11.261H15.8401V12.6076H20.3213C20.4586 12.6077 20.5945 12.5807 20.7213 12.5281C20.8482 12.4756 20.9634 12.3986 21.0604 12.3015C21.1574 12.2044 21.2343 12.0891 21.2867 11.9622ZM13.4125 6.40944V8.43199C13.4133 8.48465 13.4035 8.53693 13.3839 8.5858C13.3642 8.63466 13.3351 8.67914 13.2981 8.71666C13.2612 8.75418 13.2171 8.78399 13.1686 8.80437C13.12 8.82474 13.0679 8.83527 13.0152 8.83535H10.9857C10.9328 8.83531 10.8805 8.82484 10.8317 8.80452C10.7829 8.78421 10.7386 8.75446 10.7013 8.71698C10.6641 8.67951 10.6346 8.63504 10.6145 8.58613C10.5945 8.53723 10.5843 8.48484 10.5845 8.43199V6.40594C10.5845 6.18404 10.7628 6.00448 10.9857 6.00448H13.0152C13.0678 6.00448 13.1198 6.01489 13.1682 6.03512C13.2167 6.05534 13.2607 6.08498 13.2976 6.12231C13.3346 6.15965 13.3638 6.20394 13.3835 6.25262C13.4032 6.3013 13.4131 6.35341 13.4125 6.40594V6.40944ZM13.7182 4.65686H10.2815C10.1443 4.6569 10.0085 4.68396 9.8818 4.7365C9.7551 4.78904 9.64 4.86602 9.54306 4.96304C9.44612 5.06007 9.36924 5.17525 9.31682 5.30199C9.2644 5.42874 9.23747 5.56457 9.23755 5.70172V9.13748C9.23734 9.27467 9.26419 9.41056 9.31657 9.53736C9.36894 9.66416 9.44581 9.77938 9.54278 9.87644C9.63974 9.97349 9.7549 10.0505 9.88165 10.103C10.0084 10.1554 10.1443 10.1824 10.2815 10.1823H13.7182C13.9951 10.1821 14.2607 10.0719 14.4565 9.87599C14.6523 9.68008 14.7623 9.41446 14.7624 9.13748V5.70172C14.7622 5.42477 14.6522 5.1592 14.4564 4.9633C14.2606 4.76741 13.9951 4.6572 13.7182 4.65686ZM12.3314 17.653V15.661V15.6585C12.3317 15.6065 12.3218 15.555 12.3021 15.5069C12.2824 15.4588 12.2534 15.415 12.2168 15.3781C12.1802 15.3412 12.1367 15.3119 12.0887 15.2919C12.0407 15.2719 11.9893 15.2616 11.9373 15.2615H9.93672C9.71768 15.2615 9.54195 15.4395 9.54195 15.6585V17.653C9.5417 17.7051 9.55171 17.7567 9.57142 17.8049C9.59114 17.8531 9.62015 17.8969 9.65682 17.9338C9.69349 17.9708 9.73708 18.0002 9.78511 18.0203C9.83314 18.0404 9.88465 18.0508 9.93672 18.051C9.93895 18.051 9.94117 18.0487 9.94117 18.0487V18.051H11.9328V18.0487C11.9338 18.0487 11.9344 18.0493 11.9351 18.0499C11.9357 18.0504 11.9363 18.051 11.9373 18.051C11.9893 18.0507 12.0408 18.0402 12.0887 18.0201C12.1367 18 12.1802 17.9706 12.2168 17.9336C12.2534 17.8967 12.2823 17.8529 12.302 17.8047C12.3217 17.7566 12.3317 17.705 12.3314 17.653ZM9.24396 13.9352H12.6297C12.9022 13.9352 13.1635 14.0429 13.3564 14.2353C13.5493 14.4278 13.658 14.6888 13.6587 14.9613V18.3486C13.6587 18.6216 13.5503 18.8833 13.3573 19.0763C13.1644 19.2693 12.9027 19.3778 12.6297 19.3779H9.24396C9.10872 19.378 8.97477 19.3515 8.84979 19.2998C8.7248 19.2482 8.61122 19.1724 8.51555 19.0768C8.41987 18.9812 8.34397 18.8677 8.29218 18.7427C8.2404 18.6178 8.21375 18.4839 8.21375 18.3486V14.9613C8.21434 14.6886 8.3232 14.4273 8.51639 14.2349C8.70959 14.0425 8.97129 13.9347 9.24396 13.9352Z" fill="white"/>
</g>
<defs>
<clipPath id="clip0_1664_3518">
<rect width="24" height="24" fill="white"/>
</clipPath>
</defs>
</svg>
