<?xml version="1.0" encoding="UTF-8" standalone="no"?>
<!-- Created with Inkscape (http://www.inkscape.org/) -->

<svg
   width="24"
   height="24"
   viewBox="0 0 6.3499999 6.35"
   version="1.1"
   id="svg1"
   inkscape:export-filename="opensea.svg"
   inkscape:export-xdpi="96"
   inkscape:export-ydpi="96"
   xmlns:inkscape="http://www.inkscape.org/namespaces/inkscape"
   xmlns:sodipodi="http://sodipodi.sourceforge.net/DTD/sodipodi-0.dtd"
   xmlns="http://www.w3.org/2000/svg"
   xmlns:svg="http://www.w3.org/2000/svg">

  <g
     inkscape:label="Calque 1"
     inkscape:groupmode="layer"
     id="layer1">
    <g
       id="g14"
       transform="scale(0.01763944)"
       style="stroke-width:14.9995">
      <path
         d="m 252.072,212.292 c -6.246,8.37 -19.386,22.266 -26.694,22.266 h -33.966 v -22.284 h 27.054 c 3.87,0 7.56,-1.566 10.224,-4.32 13.896,-14.4 21.924,-31.536 21.924,-49.914 0,-31.356 -23.436,-59.076 -59.22,-75.78 V 67.284 c 0,-6.444 -5.22,-11.664 -11.664,-11.664 -6.444,0 -11.664,5.22 -11.664,11.664 v 6.21 C 158.04,70.56 147.42,68.328 136.332,67.05 c 18.36,19.944 29.574,46.62 29.574,75.87 0,26.226 -8.964,50.31 -24.03,69.39 h 26.19 v 22.32 h -38.34 c -5.184,0 -9.396,-4.194 -9.396,-9.396 v -9.756 c 0,-1.71 -1.386,-3.114 -3.114,-3.114 H 66.672 c -0.99,0 -1.836,0.81 -1.836,1.8 -0.036,39.924 31.554,69.894 69.336,69.894 h 106.65 c 25.56,0 36.99,-32.76 51.966,-53.604 5.814,-8.064 19.764,-14.544 23.994,-16.344 0.774,-0.324 1.224,-1.044 1.224,-1.89 v -12.96 c 0,-1.314 -1.296,-2.304 -2.574,-1.944 0,0 -61.65,14.166 -62.37,14.364 -0.72,0.216 -0.99,0.63 -0.99,0.63 z"
         fill="none"
         id="path1"
         clip-path="url(#clipPath11)"
         style="stroke-width:14.9995" />
      <path
         d="m 146.16,142.83 c 0,-20.106 -6.894,-38.61 -18.414,-53.244 L 69.732,189.972 h 62.406 c 8.874,-13.536 14.04,-29.736 14.04,-47.124 z"
         fill="none"
         id="path2"
         clip-path="url(#clipPath9)"
         style="stroke-width:14.9995" />
      <path
         d="M 181.566,-5.19844e-6 C 80.91,-0.828005 -0.82799,80.91 1.00604e-5,181.566 0.84601,279.306 80.694,359.172 178.416,359.982 279.072,360.846 360.846,279.072 359.982,178.416 359.172,80.712 279.306,0.845995 181.566,-5.19844e-6 Z M 127.746,89.586 c 11.52,14.634 18.414,33.156 18.414,53.244 0,17.406 -5.166,33.606 -14.04,47.124 H 69.714 L 127.728,89.568 Z m 190.26,109.656 v 12.96 c 0,0.846 -0.45,1.566 -1.224,1.89 -4.23,1.8 -18.18,8.28 -23.994,16.344 -14.976,20.844 -26.406,53.604 -51.966,53.604 h -106.65 c -37.764,0 -69.354,-29.97 -69.336,-69.894 0,-0.99 0.846,-1.8 1.836,-1.8 h 50.544 c 1.746,0 3.114,1.404 3.114,3.114 v 9.756 c 0,5.184 4.194,9.396 9.396,9.396 h 38.34 v -22.32 h -26.19 c 15.066,-19.08 24.03,-43.164 24.03,-69.39 0,-29.25 -11.214,-55.926 -29.574,-75.87 11.106,1.296 21.726,3.51 31.734,6.444 v -6.21 c 0,-6.444 5.22,-11.664 11.664,-11.664 6.444,0 11.664,5.22 11.664,11.664 v 14.976 c 35.784,16.704 59.22,44.424 59.22,75.78 0,18.396 -8.046,35.514 -21.924,49.914 -2.664,2.754 -6.354,4.32 -10.224,4.32 h -27.054 v 22.284 h 33.966 c 7.326,0 20.466,-13.896 26.694,-22.266 0,0 0.27,-0.414 0.99,-0.63 0.72,-0.216 62.37,-14.364 62.37,-14.364 1.296,-0.36 2.574,0.63 2.574,1.944 z"
         fill="#ffffff"
         id="path3"
         clip-path="url(#clipPath7)"
         style="stroke-width:14.9995" />
    </g>
  </g>
</svg>
