<svg width="25" height="24" viewBox="0 0 25 24" fill="none" xmlns="http://www.w3.org/2000/svg">
<path d="M6.95773 8.25507C5.40547 8.25507 4.14259 6.97956 4.14259 5.41162C4.14259 3.84381 5.40547 2.56817 6.95773 2.56817C8.50961 2.56817 9.77249 3.84381 9.77249 5.41162C9.77249 6.97956 8.50961 8.25507 6.95773 8.25507ZM6.95786 0C4.00364 0 1.6001 2.42757 1.6001 5.41149C1.6001 8.39567 4.00364 10.8234 6.95786 10.8234C9.91168 10.8234 12.315 8.39567 12.315 5.41149C12.315 2.42757 9.91168 0 6.95786 0Z" fill="white"/>
<path d="M18.6519 5.7483H15.7397V2.50355H18.6519C19.6567 2.50355 19.9631 3.45902 19.9631 4.12593C19.9631 4.81347 19.6567 5.7483 18.6519 5.7483ZM22.4936 4.12593C22.4936 1.79923 20.9201 0.00219727 18.6638 0.00219727H13.3359V10.8142H15.7394L15.7397 8.24965H18.6638C20.8391 8.24965 22.4936 6.46474 22.4936 4.12593Z" fill="white"/>
<path d="M22.4933 8.62036C21.8947 8.62036 21.4075 9.11248 21.4075 9.71747C21.4075 10.3222 21.8947 10.8143 22.4933 10.8143C23.0923 10.8143 23.5796 10.3222 23.5796 9.71747C23.5796 9.11248 23.0923 8.62036 22.4933 8.62036Z" fill="white"/>
<path d="M11.9422 17.9431H7.16972V19.8789H9.3568C9.18249 20.7322 8.29327 21.497 6.95262 21.497C5.36677 21.497 4.07644 20.1938 4.07644 18.5922C4.07644 16.99 5.36677 15.7352 6.95262 15.7352C7.7306 15.7352 8.45993 15.9979 9.00702 16.5631L9.12847 16.6887L9.27316 16.5913L11.0042 15.4253L11.1992 15.294L11.0483 15.1129C10.028 13.8877 8.53489 13.1851 6.95262 13.1851C4.00134 13.1851 1.6001 15.6107 1.6001 18.5922C1.6001 21.5734 4.00134 23.9985 6.95262 23.9985C9.57965 23.9985 11.4639 22.4709 11.8698 20.0119C11.9699 19.4041 11.9967 19.0956 11.979 18.5922C11.9685 18.2921 11.9538 18.078 11.9422 17.9431Z" fill="white"/>
<path d="M23.1829 17.9445H18.4103V19.8802H20.5974C20.4233 20.7335 19.5339 21.4985 18.1931 21.4985C16.6074 21.4985 15.317 20.1952 15.317 18.5935C15.317 16.9914 16.6074 15.7365 18.1931 15.7365C18.9709 15.7365 19.7003 15.9994 20.2477 16.5644L20.3692 16.69L20.5139 16.5927L22.2448 15.4268L22.4399 15.2953L22.289 15.1142C21.2684 13.8892 19.7755 13.1865 18.1931 13.1865C15.2417 13.1865 12.8408 15.612 12.8408 18.5935C12.8408 21.5748 15.2417 24 18.1931 24C20.8204 24 22.7045 22.4724 23.1104 20.0132C23.2106 19.4055 23.2373 19.097 23.2196 18.5936C23.2091 18.2935 23.1944 18.0795 23.1829 17.9445Z" fill="white"/>
</svg>
