<svg width="108" height="26" viewBox="0 0 108 26" xmlns="http://www.w3.org/2000/svg">
    <path d="M13.04 19.83c-3.778 0-6.851-3.064-6.851-6.83s3.073-6.83 6.852-6.83c3.777 0 6.851 3.064 6.851 6.83s-3.074 6.83-6.851 6.83m0-19.83C5.851 0 0 5.832 0 13s5.85 13 13.041 13c7.19 0 13.04-5.832 13.04-13S20.23 0 13.04 0m28.493.005c5.492 0 9.322 4.317 9.322 9.906 0 5.619-4.027 9.907-9.322 9.907h-7.117v6.16h-5.85V.005zm9.322 20.703a2.643 2.643 0 0 1 2.644 2.635 2.643 2.643 0 0 1-2.644 2.635 2.642 2.642 0 0 1-2.643-2.635 2.642 2.642 0 0 1 2.643-2.635zm-9.35-14.694h-7.089v7.795h7.089c2.445 0 3.19-2.246 3.19-3.898 0-1.602-.745-3.897-3.19-3.897zm38.282 5.421H68.17v4.65h5.324c-.424 2.05-2.589 3.887-5.852 3.887-3.86 0-7-3.13-7-6.978s3.14-6.863 7-6.863c1.894 0 3.669.631 5 1.989l.296.302.352-.234 4.214-2.801.474-.316-.367-.435a13.018 13.018 0 0 0-9.969-4.63c-7.184 0-13.028 5.826-13.028 12.988s5.844 12.987 13.028 12.987c6.394 0 10.98-3.67 11.969-9.576.243-1.46.309-2.201.265-3.41a30.707 30.707 0 0 0-.09-1.56m27.361.003H95.532v4.65h5.323c-.424 2.05-2.589 3.888-5.852 3.888-3.86 0-7-3.131-7-6.979 0-3.848 3.14-6.863 7-6.863 1.893 0 3.668.632 5.001 1.989l.296.302.352-.234 4.213-2.8.475-.317-.368-.435a13.021 13.021 0 0 0-9.97-4.63c-7.183 0-13.027 5.826-13.027 12.988s5.844 12.988 13.028 12.988c6.395 0 10.98-3.67 11.969-9.577.244-1.46.309-2.201.266-3.41a31.157 31.157 0 0 0-.09-1.56" fill="#5383E8" fill-rule="nonzero"/>
</svg>
