<svg width="24" height="24" viewBox="0 0 24 24" fill="none" xmlns="http://www.w3.org/2000/svg">
<path d="M4.99435 20.5216C3.73862 20.5216 2.66535 19.6148 2.6725 18.3584C2.69259 14.8298 10.1592 12.9215 10.1592 9.88095C10.1592 7.01642 3.54837 8.30221 3.54837 5.87632C3.54837 4.41456 6.30886 4.00534 8.29399 4.00534C12.3517 4.00534 16.7599 5.75927 16.7599 9.32604C16.7599 11.3721 15.3161 13.7399 12.397 13.7399C11.9296 13.7399 11.5793 13.6753 10.9956 13.6818C5.41072 13.7428 8.41529 20.5223 4.99435 20.5223V20.5216ZM6.16239 24C9.16271 23.9907 11.3165 21.4858 11.3165 19.0885C11.3165 17.6563 10.5576 17.0417 10.5576 16.0194C10.5576 15.1427 11.1126 14.8211 11.6087 14.8211C12.2218 14.8211 12.9513 15.3179 14.4403 15.3179C17.9732 15.3179 22.6858 12.5704 22.6858 7.92171C22.6858 2.95216 16.9638 0 11.534 0C7.06704 0 2.09528 1.81348 2.00051 4.96955C1.87631 9.12065 6.9019 8.44798 6.9019 11.0498C6.9019 13.8268 1.2998 13.7421 1.2998 18.9715C1.2998 21.6028 3.53478 24 6.16168 24H6.16239Z" fill="white"/>
</svg>
