<svg width="24" height="24" viewBox="0 0 24 24" fill="none" xmlns="http://www.w3.org/2000/svg">
<g clip-path="url(#clip0_1664_3536)">
<path d="M0.48575 16.2521C-0.413725 16.8518 -0.1139 17.9911 1.80498 18.5308C3.78383 19.1904 5.94257 19.3703 8.04134 19.0105C8.16127 19.0105 8.2812 18.9505 8.34117 18.9505V16.9117L6.30236 17.5713C5.52281 17.8112 4.74327 17.8712 3.96372 17.6913C3.36407 17.5114 3.484 17.1516 4.20358 16.8518L8.34117 15.4126V13.1939L2.58453 15.1727C1.86494 15.4126 1.14536 15.7724 0.48575 16.2521ZM14.3976 7.25735V13.074C16.8562 14.2733 18.7751 13.074 18.7751 9.95578C18.7751 6.77763 17.6357 5.33847 14.3377 4.19914C12.5987 3.59949 10.7997 3.0598 9.00078 2.70001V20.0299L13.1983 21.2892V6.71767C13.1983 6.05805 13.1983 5.57833 13.6781 5.75823C14.3377 5.93812 14.3976 6.59774 14.3976 7.25735ZM22.1931 14.8729C20.4541 14.2733 18.5952 14.0334 16.7962 14.2133C15.8368 14.2733 14.9373 14.5131 14.0978 14.8129L13.9179 14.8729V17.2115L17.8156 15.7724C18.5952 15.5325 19.3747 15.4726 20.1543 15.6525C20.7539 15.8323 20.634 16.1921 19.9144 16.492L13.9179 18.7107V20.9893L22.1931 17.9311C22.7927 17.6913 23.3324 17.3914 23.8121 16.9117C24.2319 16.3121 24.052 15.4726 22.1931 14.8729Z" fill="white"/>
</g>
<defs>
<clipPath id="clip0_1664_3536">
<rect width="24" height="24" fill="white"/>
</clipPath>
</defs>
</svg>
