<?xml version="1.0" encoding="UTF-8" standalone="no"?>
<!-- Created with Inkscape (http://www.inkscape.org/) -->

<svg
   width="24"
   height="24"
   viewBox="0 0 6.3499999 6.35"
   version="1.1"
   id="svg1"
   xmlns:inkscape="http://www.inkscape.org/namespaces/inkscape"
   xmlns:sodipodi="http://sodipodi.sourceforge.net/DTD/sodipodi-0.dtd"
   xmlns="http://www.w3.org/2000/svg"
   xmlns:svg="http://www.w3.org/2000/svg">
  <sodipodi:namedview
     id="namedview1"
     pagecolor="#ffffff"
     bordercolor="#000000"
     borderopacity="0.25"
     inkscape:showpageshadow="2"
     inkscape:pageopacity="0.0"
     inkscape:pagecheckerboard="0"
     inkscape:deskcolor="#d1d1d1"
     inkscape:document-units="mm" />
  <defs
     id="defs1" />
  <g
     inkscape:label="Calque 1"
     inkscape:groupmode="layer"
     id="layer1">
    <path
       d="M 6.3425394,2.8902528 C 6.3267438,2.7550568 6.3203144,2.6179522 6.2935655,2.4849829 6.2611017,2.3234634 6.2196687,2.1626597 6.1677583,2.006389 6.077034,1.7332136 5.9445592,1.4799994 5.7640631,1.2545402 5.6858801,1.1568809 5.6066649,1.0588241 5.5180046,0.97094667 5.3330635,0.78771634 5.1269298,0.63072992 4.9019845,0.49871501 4.6675938,0.36113319 4.4216938,0.24963624 4.1603159,0.17615324 4.0162524,0.13567396 3.8690938,0.10513557 3.7220934,0.0765854 c -0.088661,-0.017178 -0.1797817,-0.02179 -0.269712,-0.032447 -0.00413,-4.771e-4 -0.00786,-0.00469 -0.011747,-0.00724 -0.1407295,7.95e-5 -0.2814593,7.95e-5 -0.422189,7.95e-5 -0.031511,0.00509 -0.062864,0.012088 -0.094614,0.015031 C 2.7710369,0.0662439 2.6226875,0.1013952 2.4759253,0.144817 2.2952705,0.1981797 2.122712,0.27158314 1.9559477,0.35866525 1.781246,0.44996235 1.615831,0.55660811 1.458036,0.67454674 1.377392,0.73482824 1.2976216,0.79693891 1.2230102,0.86437784 1.0899796,0.98478441 0.9566316,1.1054269 0.8316973,1.2340222 0.6629487,1.4077888 0.5174565,1.6007215 0.3917285,1.8086847 0.2802877,1.993108 0.18876971,2.1861998 0.12376259,2.3917772 0.07685269,2.5402541 0.04296008,2.6912761 0.02319601,2.8462743 0.00351132,3.0008751 -0.0049023,3.1559526 0.00287633,3.3107918 c 0.00889,0.1761525 0.0251615,0.3517482 0.0578635,0.5261512 0.0453224,0.2416826 0.11620321,0.473822 0.21875407,0.6968956 0.084851,0.184423 0.190894,0.3552473 0.313844,0.5168463 0.1031065,0.1354347 0.2198653,0.2579063 0.3446409,0.3715504 0.1673199,0.1523738 0.350594,0.2845478 0.5463297,0.3999416 0.2320889,0.136866 0.475687,0.2458976 0.7309531,0.3305145 0.1736698,0.057578 0.3513877,0.098613 0.5314075,0.1285952 0.079374,0.0132 0.1604939,0.016383 0.2407407,0.024495 0.0054,5.557e-4 0.010398,0.00485 0.015557,0.00732 0.1407295,0 0.2814592,0 0.422189,0 0.032781,-0.00509 0.065404,-0.012248 0.098423,-0.014952 C 3.7371746,6.2807283 3.9433877,6.2284009 4.1445208,6.1580191 4.3694661,6.0792079 4.5852039,5.9785268 4.784591,5.8465913 4.9120654,5.7622927 5.0381901,5.675608 5.1603464,5.5838338 5.2359897,5.526972 5.304013,5.4596128 5.3735442,5.394798 5.4253756,5.3464457 5.4750633,5.2957074 5.5240371,5.2444123 5.6818322,5.0787575 5.8180376,4.8965609 5.9349551,4.6999702 6.0597308,4.4901776 6.1618848,4.2697286 6.2265744,4.0340902 c 0.037385,-0.1361506 0.06469,-0.2751638 0.091756,-0.4138589 0.013494,-0.06903 0.016351,-0.1402064 0.024448,-0.2103493 4.763e-4,-0.00414 0.00468,-0.00787 0.00722,-0.011771 0,-0.1615194 0,-0.3230388 0,-0.4845582 -0.00254,-0.00779 -0.00651,-0.015348 -0.00746,-0.023302 z M 4.2358798,2.8752218 c 0,0 -0.2166903,-0.038968 -0.3722629,-0.038968 -0.3555947,0 -0.4389371,0.1948413 -0.4389371,0.4843198 V 4.54529 H 2.4634635 V 2.0513219 h 0.9612163 v 0.417517 c 0.1166794,-0.3507143 0.3500384,-0.4731861 0.8112,-0.4731861 z"
       id="Shape"
       style="fill:#ee6e62;fill-rule:nonzero;stroke:none;stroke-width:0.264583" />
  </g>
</svg>
