<svg width="24" height="24" viewBox="0 0 24 24" fill="none" xmlns="http://www.w3.org/2000/svg">
<g clip-path="url(#clip0)">
<path d="M1.3761 5.815C1.31306 5.40071 1.55472 5.31215 1.8084 5.25962C4.69188 4.6547 7.57536 4.05279 10.4603 3.45387C10.627 3.41935 10.8266 3.3488 10.9317 3.54544C11.0593 3.7856 10.8701 3.97473 10.7636 4.16236C8.80621 7.61924 6.84586 11.0716 4.88551 14.527C4.7249 14.8092 4.5688 15.0944 4.40368 15.3736C4.30461 15.5402 4.23256 15.7788 3.9894 15.7488C3.74323 15.7188 3.73572 15.4681 3.68919 15.282C3.43552 14.2643 3.19085 13.2436 2.94168 12.2244C2.45384 10.2355 1.96751 8.24517 1.48117 6.2563C1.43914 6.08668 1.39862 5.91557 1.3761 5.815Z" fill="white"/>
<path d="M13.4099 3.43587C15.8896 3.95222 18.3332 4.45657 20.7769 4.96992C22.7012 5.3737 22.6982 5.3782 22.2299 7.28752C21.595 9.8828 20.9676 12.4811 20.3236 15.0734C20.2636 15.318 20.3146 15.6978 19.9619 15.7368C19.6662 15.7698 19.5986 15.4351 19.4815 15.228C17.3936 11.5595 15.3102 7.88943 13.2312 4.2149C13.1142 4.00776 12.898 3.80512 13.0391 3.53193C13.1217 3.37282 13.2988 3.42836 13.4099 3.43587Z" fill="white"/>
<path d="M11.9899 17.5936C14.0118 17.5936 16.0352 17.5906 18.0571 17.5981C18.2942 17.5996 18.6095 17.493 18.7401 17.7587C18.8872 18.0544 18.5674 18.1895 18.3978 18.3456C16.448 20.1364 14.4831 21.9091 12.5453 23.7118C12.122 24.1066 11.8323 24.0901 11.4165 23.7043C9.47719 21.9031 7.51084 20.1304 5.561 18.3396C5.39288 18.185 5.07916 18.0484 5.23227 17.7467C5.35085 17.511 5.63455 17.5981 5.84919 17.5966C7.8951 17.5921 9.94251 17.5936 11.9899 17.5936Z" fill="white"/>
<path d="M11.6311 1.20833C11.6311 2.45269 11.6311 2.45419 10.4483 2.71387C8.57054 3.12665 6.69275 3.54844 4.81046 3.94171C4.52826 4.00025 4.09596 4.28995 3.95187 3.88317C3.83178 3.54394 4.31511 3.47789 4.56128 3.3518C6.58768 2.31909 8.62007 1.3014 10.6525 0.282195C11.5741 -0.180123 11.6266 -0.144098 11.6326 0.908125C11.6311 1.00869 11.6311 1.10926 11.6311 1.20833Z" fill="white"/>
<path d="M19.447 4.01376C17.3261 3.54544 15.0595 3.04409 12.7914 2.54575C12.5078 2.48421 12.3531 2.3266 12.3531 2.0294C12.3531 2.00388 12.3471 1.97986 12.3501 1.95434C12.4117 1.32091 12.0424 0.468323 12.5363 0.105073C12.9731 -0.214647 13.5975 0.436801 14.1184 0.691977C15.9811 1.6016 17.8274 2.54575 19.6767 3.48089C19.8463 3.56645 20.0955 3.6355 20.0369 3.88917C19.9859 4.11433 19.7697 4.05729 19.447 4.01376Z" fill="white"/>
<path d="M22.4476 17.2183C22.4341 17.9764 22.3065 18.0364 21.6701 17.6837C20.5938 17.0847 20.5938 17.0847 20.855 15.8884C21.2813 13.9371 21.7016 11.9842 22.1384 10.0344C22.1924 9.79573 22.1384 9.37094 22.5332 9.44599C22.8169 9.50003 22.7103 9.86628 22.7103 10.1064C22.7133 11.2788 22.7118 12.4526 22.7118 13.6264" fill="#FFFDFD"/>
<path d="M3.27641 16.6645C3.27941 17.0652 2.12362 17.9583 1.78288 17.8863C1.60426 17.8488 1.53971 17.7122 1.53371 17.5576C1.43614 14.9608 1.34158 12.3655 1.25002 9.76872C1.24551 9.61861 1.27553 9.4505 1.46016 9.42348C1.65079 9.39646 1.71984 9.55557 1.75136 9.70117C2.26771 12.0428 2.77807 14.3859 3.27641 16.6645Z" fill="#FFFDFD"/>
<path d="M8.63057 22.2573C8.61556 22.4254 8.51199 22.5035 8.3784 22.4689C8.21329 22.4254 8.05268 22.3489 7.90407 22.2618C6.18089 21.2501 4.4592 20.2369 2.74202 19.2162C2.06506 18.8139 2.07106 18.6878 2.73902 18.2661C3.7192 17.6491 3.71769 17.6491 4.56728 18.4237C5.78612 19.5344 7.00646 20.6407 8.22379 21.7529C8.3844 21.9016 8.58854 22.0231 8.63057 22.2573Z" fill="#FFFDFD"/>
<path d="M21.7211 18.6969C21.7001 18.922 21.574 19.0076 21.4449 19.0826C19.5972 20.1754 17.7479 21.2681 15.8971 22.3564C15.7275 22.4554 15.5219 22.5935 15.3718 22.3639C15.2472 22.1747 15.4348 22.0397 15.5579 21.9271C16.9959 20.6137 18.4399 19.3063 19.8778 17.9914C20.145 17.7467 20.4062 17.7437 20.6854 17.9433C21.0396 18.2 21.5065 18.3111 21.7211 18.6969Z" fill="#FFFDFD"/>
<path fill-rule="evenodd" clip-rule="evenodd" d="M10.0654 16.8546H10.0653H10.0643C8.49558 16.8558 6.92658 16.857 5.35834 16.8506C4.57481 16.8476 4.49225 16.708 4.87201 16.0355C7.09053 12.0983 9.31206 8.16411 11.5396 4.23141C11.9134 3.57246 12.0484 3.57246 12.4207 4.22991C14.6482 8.16111 16.8713 12.0968 19.0913 16.0325C19.4725 16.7095 19.393 16.8476 18.6125 16.8506C17.0257 16.857 15.439 16.8558 13.8522 16.8546C13.2174 16.8541 12.5827 16.8536 11.9479 16.8536C11.3205 16.8536 10.693 16.8541 10.0654 16.8546ZM15.4332 12.4436C15.4317 13.8365 14.8118 14.6831 13.7896 14.6876C12.7524 14.6936 12.134 13.868 12.128 12.4676C12.122 11.0356 12.7629 10.156 13.8016 10.171C14.7983 10.186 15.4332 11.0686 15.4332 12.4436ZM10.3644 13.7398C10.1908 13.7394 10.002 13.7389 9.79089 13.7389C10.1197 13.3497 10.4571 13.154 10.7616 12.9773C10.9339 12.8774 11.0957 12.7835 11.2394 12.6642C11.7557 12.2379 11.9644 11.711 11.7377 11.0716C11.4946 10.3871 10.9422 10.141 10.2607 10.165C9.56874 10.189 9.0764 10.5267 8.86325 11.2007L8.86162 11.2058C8.79722 11.4064 8.71122 11.6743 9.01336 11.7666C9.24451 11.8371 9.5132 11.8837 9.69032 11.6285C9.72047 11.5839 9.74318 11.5336 9.76582 11.4835C9.79503 11.4188 9.82413 11.3543 9.86894 11.3028C10.1196 11.0161 10.4318 10.941 10.7155 11.2142C10.9977 11.4874 10.8611 11.7786 10.5939 11.9767C10.4022 12.1203 10.1968 12.2441 9.99126 12.368C9.87669 12.437 9.76209 12.5061 9.64979 12.5786C9.09591 12.9389 8.74767 13.4267 8.70414 14.1052C8.68313 14.4324 8.7837 14.6351 9.15295 14.6321C9.75591 14.6283 10.3578 14.6298 10.9596 14.6312C11.0799 14.6315 11.2002 14.6318 11.3204 14.6321C11.6011 14.6321 11.8038 14.5615 11.8143 14.2208C11.8263 13.8605 11.6522 13.7329 11.3174 13.7374C11.0222 13.7415 10.7263 13.7408 10.3644 13.7398Z" fill="white"/>
<path d="M14.5251 12.4345C14.393 12.9584 14.5461 13.7525 13.7536 13.7419C13.0316 13.7314 13.0676 12.9869 13.0646 12.4631C13.0616 11.9122 13.0106 11.1317 13.7596 11.1121C14.5416 11.0926 14.396 11.9017 14.5251 12.4345Z" fill="white"/>
</g>
<defs>
<clipPath id="clip0">
<rect x="1.25" width="21.4813" height="24" fill="white"/>
</clipPath>
</defs>
</svg>
