<svg width="24" height="24" viewBox="0 0 24 24" fill="none" xmlns="http://www.w3.org/2000/svg">
<path d="M23.2695 18.6972C20.3578 18.9052 19.7078 17.4753 19.1359 15.8115C18.7219 14.6073 18.2521 13.0906 18.0406 12.3597C19.3788 10.305 20.9298 7.83789 23.2391 4.19071H18.9181C18.1498 5.39535 17.391 6.61506 16.64 7.80821C16.4255 7.20773 16.1302 6.56107 15.7868 6.01147C14.7924 4.47079 13.2284 3.41012 10.8976 3.55282C7.81646 3.74157 5.48898 5.21811 3.61028 7.09674C1.88767 8.81934 0.207375 11.3351 0.016334 14.1847C-0.23947 17.9993 2.5473 20.1843 5.70657 20.4238C8.20322 20.6134 10.0728 19.9497 11.6464 19.1261C12.7146 18.5672 14.9874 16.6734 15.6676 15.8291C16.1724 18.1698 17.4751 20.413 20.4097 20.413C22.2285 20.413 23.3806 19.4146 24 18.643C23.7776 18.6601 23.5359 18.6781 23.2695 18.6972ZM9.25056 17.2794C8.57658 17.7677 7.71222 18.2864 6.80469 18.4274C4.54813 18.7777 3.55296 17.0258 3.71002 14.6837C3.83258 12.8552 4.55799 11.1611 5.40713 9.69227C6.27738 8.18683 7.29354 6.85279 8.45198 6.04865C8.86562 5.76131 9.48689 5.41902 10.3487 5.34981C12.4226 5.18327 13.1858 7.42703 13.7134 9.30723C13.9598 10.1897 14.1258 11.0873 14.2058 11.5593C13.6144 12.4274 11.7787 15.4476 9.25056 17.2794Z" fill="#E94E09"/>
</svg>
