<svg xmlns="http://www.w3.org/2000/svg" class="h-auto w-full" viewBox="0 0 101 89"><g fill="none" fill-rule="evenodd"><g shape-rendering="crispEdges"><path fill="#b55608" d="M96.87 22.48h4.4v4.4h-4.4zM96.87 18.08h4.4v4.4h-4.4z"></path><path fill="#c36f09" d="M96.87 13.68h4.4v4.4h-4.4zM96.87 9.28h4.4v4.4h-4.4zM96.87 4.87h4.4v4.4h-4.4z"></path><path fill="#b55608" d="M92.46 26.89h4.4v4.4h-4.4z"></path><path fill="#ffecad" d="M92.46 22.48h4.4v4.4h-4.4zM92.46 18.08h4.4v4.4h-4.4zM92.46 13.68h4.4v4.4h-4.4zM92.46 9.28h4.4v4.4h-4.4zM92.46 4.87h4.4v4.4h-4.4z"></path><path fill="#c36f09" d="M92.46.47h4.4v4.4h-4.4zM88.06 31.29h4.4v4.4h-4.4z"></path><path fill="#ffd95c" d="M88.06 26.89h4.4v4.4h-4.4z"></path><path fill="#ffc60a" d="M88.06 22.48h4.4v4.4h-4.4zM88.06 9.28h4.4v4.4h-4.4z"></path><path fill="#ffecad" d="M88.06 4.87h4.4v4.4h-4.4z"></path><path fill="#c36f09" d="M88.06.47h4.4v4.4h-4.4zM83.66 35.69h4.4v4.4h-4.4z"></path><path fill="#ffd95c" d="M83.66 31.29h4.4v4.4h-4.4z"></path><path fill="#ffc60a" d="M83.66 26.89h4.4v4.4h-4.4z"></path><path fill="#ffd95c" d="M83.66 9.28h4.4v4.4h-4.4z"></path><path fill="#ffecad" d="M83.66 4.87h4.4v4.4h-4.4z"></path><path fill="#b55608" d="M83.66.47h4.4v4.4h-4.4zM79.26 35.69h4.4v4.4h-4.4z"></path><path fill="#ffd95c" d="M79.26 31.29h4.4v4.4h-4.4zM79.26 13.68h4.4v4.4h-4.4zM79.26 9.28h4.4v4.4h-4.4z"></path><path fill="#b55608" d="M79.26 4.87h4.4v4.4h-4.4z"></path><path fill="#c36f09" d="M74.85 40.1h4.4v4.4h-4.4zM74.85 35.69h4.4v4.4h-4.4zM74.85 31.29h4.4v4.4h-4.4zM74.85 26.89h4.4v4.4h-4.4zM74.85 22.48h4.4v4.4h-4.4zM74.85 18.08h4.4v4.4h-4.4zM74.85 13.68h4.4v4.4h-4.4zM74.85 9.28h4.4v4.4h-4.4zM74.85 4.87h4.4v4.4h-4.4z"></path><path fill="#710000" d="M70.45 84.13h4.4v4.4h-4.4zM70.45 79.72h4.4v4.4h-4.4z"></path><path fill="#c36f09" d="M70.45 44.5h4.4v4.4h-4.4z"></path><path fill="#ffe285" d="M70.45 40.1h4.4v4.4h-4.4zM70.45 35.69h4.4v4.4h-4.4zM70.45 31.29h4.4v4.4h-4.4z"></path><path fill="#ffecad" d="M70.45 26.89h4.4v4.4h-4.4zM70.45 22.48h4.4v4.4h-4.4zM70.45 18.08h4.4v4.4h-4.4zM70.45 13.68h4.4v4.4h-4.4zM70.45 9.28h4.4v4.4h-4.4zM70.45 4.87h4.4v4.4h-4.4z"></path><path fill="#c36f09" d="M70.45.47h4.4v4.4h-4.4z"></path><path fill="#710000" d="M66.05 84.13h4.4v4.4h-4.4z"></path><path fill="#a63c06" d="M66.05 79.72h4.4v4.4h-4.4z"></path><path fill="#710000" d="M66.05 75.32h4.4v4.4h-4.4z"></path><path fill="#b55608" d="M66.05 48.9h4.4v4.4h-4.4z"></path><path fill="#ffe285" d="M66.05 44.5h4.4v4.4h-4.4zM66.05 40.1h4.4v4.4h-4.4zM66.05 35.69h4.4v4.4h-4.4zM66.05 31.29h4.4v4.4h-4.4zM66.05 26.89h4.4v4.4h-4.4zM66.05 22.48h4.4v4.4h-4.4zM66.05 18.08h4.4v4.4h-4.4zM66.05 13.68h4.4v4.4h-4.4zM66.05 9.28h4.4v4.4h-4.4z"></path><path fill="#ffecad" d="M66.05 4.87h4.4v4.4h-4.4z"></path><path fill="#c36f09" d="M66.05.47h4.4v4.4h-4.4z"></path><path fill="#710000" d="M61.64 84.13h4.4v4.4h-4.4z"></path><path fill="#a63c06" d="M61.64 79.72h4.4v4.4h-4.4z"></path><path fill="#da914d" d="M61.64 75.32h4.4v4.4h-4.4z"></path><path fill="#710000" d="M61.64 70.92h4.4v4.4h-4.4z"></path><path fill="#b55608" d="M61.64 53.31h4.4v4.4h-4.4z"></path><path fill="#ffe285" d="M61.64 48.9h4.4v4.4h-4.4zM61.64 44.5h4.4v4.4h-4.4zM61.64 40.1h4.4v4.4h-4.4zM61.64 35.69h4.4v4.4h-4.4zM61.64 31.29h4.4v4.4h-4.4zM61.64 26.89h4.4v4.4h-4.4zM61.64 22.48h4.4v4.4h-4.4zM61.64 18.08h4.4v4.4h-4.4zM61.64 13.68h4.4v4.4h-4.4zM61.64 9.28h4.4v4.4h-4.4zM61.64 4.87h4.4v4.4h-4.4z"></path><path fill="#c36f09" d="M61.64.47h4.4v4.4h-4.4z"></path><path fill="#710000" d="M57.24 84.13h4.4v4.4h-4.4z"></path><path fill="#c36f09" d="M57.24 79.72h4.4v4.4h-4.4z"></path><path fill="#da914d" d="M57.24 75.32h4.4v4.4h-4.4z"></path><path fill="#710000" d="M57.24 70.92h4.4v4.4h-4.4z"></path><path fill="#b55608" d="M57.24 66.52h4.4v4.4h-4.4zM57.24 62.11h4.4v4.4h-4.4zM57.24 57.71h4.4v4.4h-4.4zM57.24 53.31h4.4v4.4h-4.4z"></path><path fill="#ffe285" d="M57.24 48.9h4.4v4.4h-4.4zM57.24 44.5h4.4v4.4h-4.4zM57.24 40.1h4.4v4.4h-4.4zM57.24 35.69h4.4v4.4h-4.4zM57.24 31.29h4.4v4.4h-4.4zM57.24 26.89h4.4v4.4h-4.4zM57.24 22.48h4.4v4.4h-4.4zM57.24 18.08h4.4v4.4h-4.4zM57.24 13.68h4.4v4.4h-4.4zM57.24 9.28h4.4v4.4h-4.4zM57.24 4.87h4.4v4.4h-4.4z"></path><path fill="#c36f09" d="M57.24.47h4.4v4.4h-4.4z"></path><path fill="#710000" d="M52.84 84.13h4.4v4.4h-4.4z"></path><path fill="#da914d" d="M52.84 79.72h4.4v4.4h-4.4z"></path><path fill="#c36f09" d="M52.84 75.32h4.4v4.4h-4.4z"></path><path fill="#710000" d="M52.84 70.92h4.4v4.4h-4.4z"></path><path fill="#ffe285" d="M52.84 66.52h4.4v4.4h-4.4zM52.84 62.11h4.4v4.4h-4.4zM52.84 57.71h4.4v4.4h-4.4z"></path><path fill="#b55608" d="M52.84 53.31h4.4v4.4h-4.4z"></path><path fill="#ffd95c" d="M52.84 48.9h4.4v4.4h-4.4zM52.84 44.5h4.4v4.4h-4.4zM52.84 40.1h4.4v4.4h-4.4zM52.84 35.69h4.4v4.4h-4.4zM52.84 31.29h4.4v4.4h-4.4zM52.84 26.89h4.4v4.4h-4.4zM52.84 22.48h4.4v4.4h-4.4zM52.84 18.08h4.4v4.4h-4.4zM52.84 13.68h4.4v4.4h-4.4zM52.84 9.28h4.4v4.4h-4.4zM52.84 4.87h4.4v4.4h-4.4z"></path><path fill="#b55608" d="M52.84.47h4.4v4.4h-4.4z"></path><path fill="#710000" d="M48.43 84.13h4.4v4.4h-4.4z"></path><path fill="#da914d" d="M48.43 79.72h4.4v4.4h-4.4z"></path><path fill="#c36f09" d="M48.43 75.32h4.4v4.4h-4.4z"></path><path fill="#710000" d="M48.43 70.92h4.4v4.4h-4.4z"></path><path fill="#ffd95c" d="M48.43 66.52h4.4v4.4h-4.4zM48.43 62.11h4.4v4.4h-4.4zM48.43 57.71h4.4v4.4h-4.4z"></path><path fill="#b55608" d="M48.43 53.31h4.4v4.4h-4.4z"></path><path fill="#ffd95c" d="M48.43 48.9h4.4v4.4h-4.4zM48.43 44.5h4.4v4.4h-4.4zM48.43 40.1h4.4v4.4h-4.4zM48.43 35.69h4.4v4.4h-4.4zM48.43 31.29h4.4v4.4h-4.4zM48.43 26.89h4.4v4.4h-4.4zM48.43 22.48h4.4v4.4h-4.4zM48.43 18.08h4.4v4.4h-4.4zM48.43 13.68h4.4v4.4h-4.4zM48.43 9.28h4.4v4.4h-4.4zM48.43 4.87h4.4v4.4h-4.4z"></path><path fill="#b55608" d="M48.43.47h4.4v4.4h-4.4z"></path><path fill="#710000" d="M44.03 84.13h4.4v4.4h-4.4z"></path><path fill="#da914d" d="M44.03 79.72h4.4v4.4h-4.4z"></path><path fill="#c36f09" d="M44.03 75.32h4.4v4.4h-4.4z"></path><path fill="#710000" d="M44.03 70.92h4.4v4.4h-4.4z"></path><path fill="#ffcf33" d="M44.03 66.52h4.4v4.4h-4.4zM44.03 62.11h4.4v4.4h-4.4zM44.03 57.71h4.4v4.4h-4.4z"></path><path fill="#b55608" d="M44.03 53.31h4.4v4.4h-4.4z"></path><path fill="#ffd95c" d="M44.03 48.9h4.4v4.4h-4.4zM44.03 44.5h4.4v4.4h-4.4zM44.03 40.1h4.4v4.4h-4.4zM44.03 35.69h4.4v4.4h-4.4zM44.03 31.29h4.4v4.4h-4.4zM44.03 26.89h4.4v4.4h-4.4zM44.03 22.48h4.4v4.4h-4.4zM44.03 18.08h4.4v4.4h-4.4zM44.03 13.68h4.4v4.4h-4.4zM44.03 9.28h4.4v4.4h-4.4zM44.03 4.87h4.4v4.4h-4.4z"></path><path fill="#b55608" d="M44.03.47h4.4v4.4h-4.4z"></path><path fill="#710000" d="M39.63 84.13h4.4v4.4h-4.4z"></path><path fill="#c36f09" d="M39.63 79.72h4.4v4.4h-4.4z"></path><path fill="#da914d" d="M39.63 75.32h4.4v4.4h-4.4z"></path><path fill="#710000" d="M39.63 70.92h4.4v4.4h-4.4z"></path><path fill="#b55608" d="M39.63 66.52h4.4v4.4h-4.4zM39.63 62.11h4.4v4.4h-4.4zM39.63 57.71h4.4v4.4h-4.4zM39.63 53.31h4.4v4.4h-4.4z"></path><path fill="#ffcf33" d="M39.63 48.9h4.4v4.4h-4.4zM39.63 44.5h4.4v4.4h-4.4zM39.63 40.1h4.4v4.4h-4.4zM39.63 35.69h4.4v4.4h-4.4zM39.63 31.29h4.4v4.4h-4.4zM39.63 26.89h4.4v4.4h-4.4zM39.63 22.48h4.4v4.4h-4.4zM39.63 18.08h4.4v4.4h-4.4zM39.63 13.68h4.4v4.4h-4.4zM39.63 9.28h4.4v4.4h-4.4zM39.63 4.87h4.4v4.4h-4.4z"></path><path fill="#b55608" d="M39.63.47h4.4v4.4h-4.4z"></path><path fill="#710000" d="M35.22 84.13h4.4v4.4h-4.4z"></path><path fill="#a63c06" d="M35.22 79.72h4.4v4.4h-4.4z"></path><path fill="#da914d" d="M35.22 75.32h4.4v4.4h-4.4z"></path><path fill="#710000" d="M35.22 70.92h4.4v4.4h-4.4z"></path><path fill="#b55608" d="M35.22 53.31h4.4v4.4h-4.4z"></path><path fill="#ffc60a" d="M35.22 48.9h4.4v4.4h-4.4zM35.22 44.5h4.4v4.4h-4.4z"></path><path fill="#ffcf33" d="M35.22 40.1h4.4v4.4h-4.4zM35.22 35.69h4.4v4.4h-4.4zM35.22 31.29h4.4v4.4h-4.4zM35.22 26.89h4.4v4.4h-4.4zM35.22 22.48h4.4v4.4h-4.4zM35.22 18.08h4.4v4.4h-4.4zM35.22 13.68h4.4v4.4h-4.4zM35.22 9.28h4.4v4.4h-4.4zM35.22 4.87h4.4v4.4h-4.4z"></path><path fill="#b55608" d="M35.22.47h4.4v4.4h-4.4z"></path><path fill="#710000" d="M30.82 84.13h4.4v4.4h-4.4z"></path><path fill="#a63c06" d="M30.82 79.72h4.4v4.4h-4.4z"></path><path fill="#710000" d="M30.82 75.32h4.4v4.4h-4.4z"></path><path fill="#b55608" d="M30.82 48.9h4.4v4.4h-4.4z"></path><path fill="#ffc60a" d="M30.82 44.5h4.4v4.4h-4.4zM30.82 40.1h4.4v4.4h-4.4zM30.82 35.69h4.4v4.4h-4.4zM30.82 31.29h4.4v4.4h-4.4z"></path><path fill="#ffcf33" d="M30.82 26.89h4.4v4.4h-4.4zM30.82 22.48h4.4v4.4h-4.4zM30.82 18.08h4.4v4.4h-4.4zM30.82 13.68h4.4v4.4h-4.4zM30.82 9.28h4.4v4.4h-4.4zM30.82 4.87h4.4v4.4h-4.4z"></path><path fill="#b55608" d="M30.82.47h4.4v4.4h-4.4z"></path><path fill="#710000" d="M26.42 84.13h4.4v4.4h-4.4zM26.42 79.72h4.4v4.4h-4.4z"></path><path fill="#b55608" d="M26.42 44.5h4.4v4.4h-4.4z"></path><path fill="#ffc60a" d="M26.42 40.1h4.4v4.4h-4.4zM26.42 35.69h4.4v4.4h-4.4zM26.42 31.29h4.4v4.4h-4.4zM26.42 26.89h4.4v4.4h-4.4zM26.42 22.48h4.4v4.4h-4.4zM26.42 18.08h4.4v4.4h-4.4z"></path><path fill="#ffcf33" d="M26.42 13.68h4.4v4.4h-4.4zM26.42 9.28h4.4v4.4h-4.4zM26.42 4.87h4.4v4.4h-4.4z"></path><path fill="#b55608" d="M26.42.47h4.4v4.4h-4.4zM22.02 40.1h4.4v4.4h-4.4zM22.02 35.69h4.4v4.4h-4.4zM22.02 31.29h4.4v4.4h-4.4zM22.02 26.89h4.4v4.4h-4.4zM22.02 22.48h4.4v4.4h-4.4zM22.02 18.08h4.4v4.4h-4.4zM22.02 13.68h4.4v4.4h-4.4zM22.02 9.28h4.4v4.4h-4.4z"></path><path fill="#c36f09" d="M22.02 4.87h4.4v4.4h-4.4z"></path><path fill="#b55608" d="M17.61 35.69h4.4v4.4h-4.4z"></path><path fill="#ffcf33" d="M17.61 31.29h4.4v4.4h-4.4zM17.61 13.68h4.4v4.4h-4.4z"></path><path fill="#ffe285" d="M17.61 9.28h4.4v4.4h-4.4z"></path><path fill="#c36f09" d="M17.61 4.87h4.4v4.4h-4.4z"></path><path fill="#b55608" d="M13.21 35.69h4.4v4.4h-4.4z"></path><path fill="#ffc60a" d="M13.21 31.29h4.4v4.4h-4.4z"></path><path fill="#ffe285" d="M13.21 26.89h4.4v4.4h-4.4z"></path><path fill="#ffcf33" d="M13.21 9.28h4.4v4.4h-4.4z"></path><path fill="#ffe285" d="M13.21 4.87h4.4v4.4h-4.4z"></path><path fill="#c36f09" d="M13.21.47h4.4v4.4h-4.4z"></path><path fill="#b55608" d="M8.81 31.29h4.4v4.4h-4.4z"></path><path fill="#ffc60a" d="M8.81 26.89h4.4v4.4h-4.4z"></path><path fill="#ffe285" d="M8.81 22.48h4.4v4.4h-4.4z"></path><path fill="#ffcf33" d="M8.81 9.28h4.4v4.4h-4.4z"></path><path fill="#ffe285" d="M8.81 4.87h4.4v4.4h-4.4z"></path><path fill="#c36f09" d="M8.81.47h4.4v4.4h-4.4z"></path><path fill="#b55608" d="M4.4 26.89h4.4v4.4H4.4z"></path><path fill="#ffc60a" d="M4.4 22.48h4.4v4.4H4.4z"></path><path fill="#ffcf33" d="M4.4 18.08h4.4v4.4H4.4zM4.4 13.68h4.4v4.4H4.4zM4.4 9.28h4.4v4.4H4.4z"></path><path fill="#ffe285" d="M4.4 4.87h4.4v4.4H4.4z"></path><path fill="#b55608" d="M4.4.47h4.4v4.4H4.4zM0 22.48h4.4v4.4H0zM0 18.08h4.4v4.4H0zM0 13.68h4.4v4.4H0zM0 9.28h4.4v4.4H0zM0 4.87h4.4v4.4H0z"></path></g></g></svg>