<?xml version="1.0" encoding="UTF-8" standalone="no"?>
<!-- Created with Inkscape (http://www.inkscape.org/) -->

<svg
   width="200"
   height="200"
   viewBox="0 0 52.916667 52.916666"
   version="1.1"
   id="svg23546"
   xml:space="preserve"
   xmlns="http://www.w3.org/2000/svg"
   xmlns:svg="http://www.w3.org/2000/svg"><defs
     id="defs23543" /><g
     id="layer1"
     transform="translate(-78.79748,-70.27322)"><path
       style="fill:#000000;stroke-width:0.174702"
       d="m 90.839578,115.92913 c -1.800298,-0.51006 -3.338559,-1.8308 -4.119769,-3.53719 -0.819607,-1.79026 -0.977925,-3.11429 -0.876273,-7.32845 0.08862,-3.67416 0.209385,-4.97513 1.256779,-13.539412 0.531363,-4.344843 0.538586,-6.94056 0.02146,-7.717496 -0.759896,-1.141699 -2.332109,-0.980454 -3.60735,0.369964 -0.825628,0.874299 -1.8387,2.75619 -2.356579,4.377596 -0.168797,0.528474 -0.362223,1.021916 -0.429844,1.096541 -0.155353,0.171455 -1.930533,-0.199287 -1.930533,-0.40319 0,-0.417123 0.98456,-3.190343 1.486626,-4.187392 1.817181,-3.608748 4.443853,-5.590467 7.409869,-5.590467 2.272815,0 3.930397,0.955498 4.862564,2.802981 1.161347,2.30169 1.132518,4.463825 -0.223945,16.797084 -0.79575,7.235101 -0.932318,9.811121 -0.586358,11.060161 0.429387,1.55027 1.3429,2.22919 2.968663,2.2063 4.218318,-0.0594 8.305882,-4.71973 10.377572,-11.83179 1.0468,-3.593628 1.46406,-6.458713 1.60044,-10.989367 0.0852,-2.828973 -0.0938,-7.443208 -0.35233,-9.084507 -0.0174,-0.110681 1.05795,-0.174703 2.93454,-0.174703 h 2.96206 l 0.12149,0.436756 c 0.19214,0.690758 0.17348,6.175753 -0.0285,8.385699 -0.10101,1.104991 -0.5824,4.79994 -1.06977,8.210998 -0.74529,5.216244 -0.88954,6.646174 -0.90764,8.997164 -0.0289,3.74749 0.37518,4.89941 2.03681,5.807 0.82383,0.44996 3.1953,0.3937 4.57866,-0.10864 4.32509,-1.57057 8.19616,-6.13955 10.13515,-11.96244 0.88268,-2.650742 1.19123,-4.662953 1.18254,-7.712093 -0.0115,-4.02835 -0.73169,-6.226114 -2.47641,-7.556854 l -0.76153,-0.580835 -0.40921,0.602213 c -0.80933,1.19104 -3.0178,1.520812 -4.26021,0.636141 -1.07416,-0.764873 -1.4898,-2.347363 -0.95397,-3.632077 0.82504,-1.978089 3.32888,-2.821671 6.03034,-2.031718 2.53986,0.742693 4.29927,2.69904 5.40663,6.011802 0.71605,2.142114 0.93076,3.96896 0.82865,7.050378 -0.2214,6.680734 -2.87078,13.029683 -7.41123,17.760183 -1.84395,1.92114 -3.5902,3.20501 -5.69701,4.18855 -1.9045,0.8891 -3.17115,1.20972 -5.29447,1.34015 -2.7649,0.16984 -4.57837,-0.41341 -5.96596,-1.91877 -1.49735,-1.62443 -2.13134,-3.61963 -2.14725,-6.75743 l -0.009,-1.83437 -0.49408,1.13556 c -1.80405,4.1464 -4.94231,7.37605 -8.616548,8.86752 -1.3208,0.53615 -3.921265,0.70492 -5.214763,0.33845 z"
       id="path23681" /></g></svg>
