<?xml version="1.0" encoding="UTF-8" standalone="no"?>
<!-- Created with Inkscape (http://www.inkscape.org/) -->

<svg
   width="200"
   height="200"
   viewBox="0 0 52.916667 52.916667"
   version="1.1"
   id="svg14536"
   xml:space="preserve"
   inkscape:version="1.2.2 (b0a8486541, 2022-12-01)"
   sodipodi:docname="writeas.svg"
   xmlns:inkscape="http://www.inkscape.org/namespaces/inkscape"
   xmlns:sodipodi="http://sodipodi.sourceforge.net/DTD/sodipodi-0.dtd"
   xmlns="http://www.w3.org/2000/svg"
   xmlns:svg="http://www.w3.org/2000/svg"><sodipodi:namedview
     id="namedview14538"
     pagecolor="#ffffff"
     bordercolor="#000000"
     borderopacity="0.25"
     inkscape:showpageshadow="2"
     inkscape:pageopacity="0.0"
     inkscape:pagecheckerboard="0"
     inkscape:deskcolor="#d1d1d1"
     inkscape:document-units="mm"
     showgrid="false"
     inkscape:zoom="1.829812"
     inkscape:cx="-40.987817"
     inkscape:cy="10.930085"
     inkscape:window-width="2560"
     inkscape:window-height="1371"
     inkscape:window-x="0"
     inkscape:window-y="0"
     inkscape:window-maximized="1"
     inkscape:current-layer="layer1" /><defs
     id="defs14533" /><g
     inkscape:label="Ebene 1"
     inkscape:groupmode="layer"
     id="layer1"
     transform="translate(-78.523343,-170.07494)"><path
       style="fill:#000000;fill-opacity:1;stroke:none;stroke-width:0.143297;stroke-dasharray:none;stroke-opacity:0.385101"
       d="m 92.514549,213.4505 -2.979027,0.0944 -3.223717,-9.18048 -3.223727,-9.18047 -1.203524,-3.71183 -1.203524,-3.71181 c -0.717206,-0.0288 -1.525402,0.017 -2.157687,0.0466 l 0.01005,-2.00274 v -2.34959 h 7.103696 7.103706 v 1.98243 1.98242 h -0.788547 c -0.418797,0.0337 -1.333045,0.99973 -1.438724,1.3993 -0.119721,0.45268 -0.170926,1.41345 -0.08182,1.73954 l 1.444571,5.28648 1.444572,5.28647 0.421442,1.98243 0.421442,1.48681 c 0.374585,-1.65201 0.74918,-2.80843 1.123765,-4.46045 l 1.741561,-5.94728 1.741566,-5.94729 0.672334,-2.39543 0.672323,-2.39543 h 3.25095 3.25096 v 0.11639 0.11641 l 2.48049,8.49857 2.48049,8.49859 0.53332,2.12317 0.67595,2.5857 0.44534,-1.61896 0.95735,-3.13884 0.95735,-3.13884 1.20126,-3.92717 c 0.50868,-1.67614 0.9116,-3.36706 1.71633,-4.92322 l 0.48866,-0.91465 c -0.99341,-0.006 -2.53894,0.0251 -3.67683,0.0232 l 3.4e-4,-2.01919 v -2.29676 l 5.69948,0.0904 5.69948,0.0904 v 1.81315 1.94469 l -0.66081,-0.014 -0.66081,0.11761 c -0.34047,0.0606 -2.13422,1.59756 -2.44837,2.3561 l -0.83345,2.01247 -0.83346,2.01245 -2.93694,8.59052 -2.93695,8.59052 -0.40011,1.23902 -0.40011,1.23902 h -3.2005 -3.20049 l -1.78532,-5.53428 -1.78531,-5.53428 -1.26817,-4.26964 -1.26818,-4.26966 -0.0939,-0.0939 -0.094,-0.0939 -0.93415,3.6604 c -0.729186,3.35062 -1.904749,6.56877 -2.988203,9.81528 l -2.054042,6.15485 -2.979036,0.0943 z"
       id="path14902"
       sodipodi:nodetypes="ccccccccccccccsscccccccccccccccccccccccccccccccssccccccccccccccccccc" /><circle
       style="opacity:1;fill:#59c2ee;fill-opacity:1;stroke:none;stroke-width:0.0765663;stroke-linecap:round;stroke-linejoin:round;stroke-dasharray:none;stroke-opacity:0.385101;paint-order:markers fill stroke"
       id="path16565"
       cx="126.43568"
       cy="208.85655"
       r="5.0043335" /></g></svg>
