<svg width="24" height="24" viewBox="0 0 24 24" fill="none" xmlns="http://www.w3.org/2000/svg">
<g clip-path="url(#clip0_1664_3530)">
<path d="M10.8033 23.964C8.95451 23.7869 7.08281 23.123 5.47499 22.0739C4.1277 21.1952 3.82365 20.8334 3.82365 20.1124C3.82365 18.6638 5.41641 16.1263 8.14168 13.2342C9.68897 11.5912 11.8446 9.66655 12.0776 9.71843C12.5311 9.81969 16.1546 13.3542 17.5113 15.0183C19.6564 17.6488 20.6422 19.8033 20.1412 20.7637C19.7605 21.4937 17.3973 22.9208 15.6614 23.4689C14.2304 23.9208 12.3512 24.1121 10.8033 23.964ZM2.00383 18.6064C0.884161 16.8886 0.318466 15.1977 0.0456605 12.7519C-0.0447167 11.9444 -0.0129173 11.4827 0.250125 9.82471C0.577324 7.76053 1.75362 5.37 3.16786 3.89997C3.76982 3.27514 3.82337 3.25841 4.55755 3.50667C5.44738 3.80792 6.39857 4.46511 7.87417 5.79957L8.7361 6.57893L8.26469 7.15635C6.08113 9.83698 3.77651 13.639 2.909 15.9904C2.43759 17.268 2.24791 18.5511 2.45154 19.0853C2.58822 19.4463 2.46269 19.3118 2.00244 18.6072L2.00383 18.6064ZM21.6561 18.8984C21.7669 18.3584 21.6269 17.367 21.2991 16.3667C20.5892 14.2008 18.2157 10.1714 16.0363 7.43166L15.3501 6.56917L16.0926 5.88772C17.0617 4.99789 17.7345 4.46511 18.4609 4.01239C19.0335 3.65534 19.8522 3.3393 20.2043 3.3393C20.421 3.3393 21.185 4.13429 21.8015 4.99901C22.7566 6.33793 23.4589 7.96416 23.8149 9.65455C24.045 10.748 24.0643 13.0855 23.852 14.1762C23.6762 15.071 23.308 16.2309 22.951 17.0178C22.6804 17.6072 22.0138 18.7522 21.7209 19.1249C21.5702 19.3165 21.5702 19.3163 21.6539 18.9029L21.6561 18.8984ZM11.0014 2.93037C9.99553 2.41991 8.44405 1.87179 7.58714 1.72395C7.287 1.67234 6.77458 1.64305 6.44906 1.65979C5.74166 1.69549 5.77318 1.65867 6.90736 1.12283C7.85018 0.677356 8.6368 0.415429 9.70515 0.19116C10.906 -0.0612826 13.164 -0.0640721 14.3459 0.185023C15.6221 0.454202 17.1253 1.01348 17.9722 1.5351L18.2243 1.68964L17.6469 1.66063C16.4988 1.60261 14.8257 2.06649 13.0293 2.94013C12.4876 3.20401 12.0167 3.41434 11.9822 3.40876C11.9478 3.40206 11.5063 3.187 11.0003 2.93037H11.0014Z" fill="white"/>
</g>
<defs>
<clipPath id="clip0_1664_3530">
<rect width="24" height="24" fill="white"/>
</clipPath>
</defs>
</svg>
