<?xml version="1.0" encoding="UTF-8" standalone="no"?>
<!DOCTYPE svg PUBLIC "-//W3C//DTD SVG 1.1//EN" "http://www.w3.org/Graphics/SVG/1.1/DTD/svg11.dtd">

<svg width="100%" height="100%" viewBox="0 0 422 422" version="1.1" xmlns="http://www.w3.org/2000/svg" xmlns:xlink="http://www.w3.org/1999/xlink" xml:space="preserve" xmlns:serif="http://www.serif.com/" style="fill-rule:evenodd;clip-rule:evenodd;stroke-linejoin:round;stroke-miterlimit:2;">
  <path d="M366.694,0.001l-311.203,-0c-30.522,-0 -55.491,24.969 -55.491,55.487l-0,310.238c-0,30.516 24.969,55.491 55.491,55.491l310.234,-0c30.519,-0 55.491,-24.975 55.491,-55.491l-0,-311.206c-0,-29.985 -24.535,-54.519 -54.522,-54.519" style="fill:#0068ff;fill-rule:nonzero;"/>
  <g opacity="0.12">
    <path d="M53.223,367.281l52.369,53.935l260.131,-0c30.522,-0 55.491,-24.972 55.491,-55.491l-0,-145.066l-367.991,146.622Z"/>
  </g>
  <path d="M407.328,331.347c4.937,-4.753 9.553,-9.941 13.887,-15.469l0,-261.356c0,-29.988 -24.534,-54.522 -54.522,-54.522l-257.796,0c-9.288,5.9 -17.813,12.441 -25.319,19.666c-70.085,67.475 -75.356,213.959 -15.925,293.453c0.056,0.094 0.065,0.181 0.131,0.278c9.163,13.569 0.269,37.162 -13.547,50.903c-2.209,2.194 -1.325,3.447 1.903,3.803c19.669,2.147 44.191,-3.472 61.61,-11.953c84.931,46.947 223.615,38.7 289.578,-24.803" style="fill:#fff;"/>
  <path d="M407.328,331.347c4.959,-4.775 9.575,-9.963 13.887,-15.478l0,-261.347c0,-10.95 -3.3,-21.156 -8.912,-29.722c-1.638,-1.741 -3.266,-3.488 -4.975,-5.134c-5.456,-5.25 -11.456,-10.078 -17.835,-14.575c-6.953,-3.235 -14.659,-5.091 -22.8,-5.091l-257.656,0c-9.306,5.838 -17.881,12.372 -25.459,19.666c-70.085,67.475 -75.356,213.959 -15.925,293.453c0.056,0.094 0.065,0.181 0.131,0.278c9.163,13.569 0.269,37.162 -13.547,50.903c-2.209,2.194 -1.325,3.447 1.903,3.803c19.669,2.147 44.191,-3.472 61.61,-11.953c84.931,46.947 223.615,38.7 289.578,-24.803" style="fill:#fff;"/>
  <path d="M81.73,160.296l57.947,-0l-57.235,69.5c-1.731,2.512 -3.1,4.922 -3.1,10.331l0,4.41l78.766,-0c3.956,-0 7.162,-3.141 7.162,-7.019l0,-9.36l-60.793,0l53.69,-66.109c0.756,-0.956 2.338,-2.719 3.01,-3.469l0.371,-0.415c3.088,-4.463 3.722,-8.266 3.722,-12.922l0,-2.497l-83.54,-0l-0,17.55Z" style="fill:#0068ff;"/>
  <path d="M265.507,238.693c-0,3.221 2.671,5.843 5.962,5.843l11.941,0l-0,-102.962l-17.903,-0l-0,97.119Z" style="fill:#0068ff;"/>
  <path d="M210.607,228.472c-13.181,0 -23.869,-10.478 -23.869,-23.4c0,-12.925 10.688,-23.403 23.869,-23.403c13.128,0 23.766,10.397 23.853,23.25l0,0.306c-0.087,12.853 -10.725,23.247 -23.853,23.247m23.853,-55.534c-6.7,-4.788 -14.925,-7.647 -23.853,-7.647c-22.406,-0 -40.575,17.809 -40.575,39.781c-0,21.972 18.169,39.781 40.575,39.781c8.928,0 17.153,-2.859 23.853,-7.65l0,0.319c0,3.875 3.203,7.016 7.153,7.016l9.572,-0l0,-77.022l-16.725,-0l0,5.422Z" style="fill:#0068ff;"/>
  <path d="M336.335,228.756c-13.341,-0 -24.156,-10.606 -24.156,-23.684c-0,-13.082 10.815,-23.682 24.156,-23.682c13.344,0 24.159,10.6 24.159,23.682c0,13.078 -10.815,23.684 -24.159,23.684m0,-63.947c-22.681,0 -41.066,18.028 -41.066,40.263c0,22.234 18.385,40.262 41.066,40.262c22.681,0 41.069,-18.028 41.069,-40.262c-0,-22.235 -18.388,-40.263 -41.069,-40.263" style="fill:#0068ff;"/>
</svg>
